<svg width="305" height="331" viewBox="0 0 305 331" fill="current" xmlns="http://www.w3.org/2000/svg">
<path fill-rule="evenodd" clip-rule="evenodd" d="M167.841 36.2943C166.34 35.0264 164.315 33.882 163.537 33.8174C162.619 33.7285 160.66 33.0265 159.086 32.1765C155.938 30.4765 146.082 30.1859 137.425 31.2537C130.733 32.1633 107.705 39.0414 93.7924 44.2858C71.5773 52.6702 60.6724 58.3695 41.9287 71.5257C26.3771 82.4412 24.282 84.1561 20.1926 89.4699C13.9523 97.6374 11.4628 104.883 12.2017 112.55C12.7493 118.03 13.3411 119.569 17.2147 124.914C22.5001 132.444 28.272 135.967 37.5477 137.52C45.7909 138.821 54.6699 137.72 69.55 133.506C80.8185 130.24 88.7139 128.608 92.1303 128.775C93.1872 128.889 93.8365 130.51 94.3912 135.13C95.666 145.475 104.15 155.647 114.157 158.764C118.853 160.233 124.284 166.927 123.363 170.14C122.955 171.648 124.261 174.03 129.029 180.823C133.798 187.617 135.594 189.655 137.151 189.784C140.485 190.009 144.935 197.393 144.72 202.308C144.425 208.502 146.423 214.308 150.789 220.529C154.006 225.112 155.68 226.626 160.426 229.036C163.598 230.597 166.386 232.306 166.673 232.715C167.42 233.779 161.068 244.224 152.882 255.712C144.238 267.766 141.615 272.906 139.668 281.969C136.427 297.194 144.139 312.185 157.473 316.387C163.792 318.427 174.301 317.037 183.856 312.896C193.248 308.87 213.881 293.532 226.293 281.277C242.715 264.986 265.805 236.439 272.065 224.471C276.47 216.125 279.547 206.757 279.043 203.08C278.778 201.311 278.784 199.23 279.012 198.336C279.566 195.993 276.887 189.565 272.981 183.999C268.902 178.188 262.225 171.634 261.079 172.439C260.67 172.726 258.989 172.073 257.243 170.977C255.554 169.963 253.562 169.04 252.899 169.139C250.875 169.216 244.054 158.976 244.494 156.468C244.811 154.657 241.183 149.14 219.064 117.628C196.946 86.1157 192.991 80.8285 191.18 80.5113C188.672 80.0721 181.36 70.1769 182.12 68.2999C182.439 67.7096 182.247 65.5225 181.868 63.5896C181.431 61.5749 181.388 59.7726 181.797 59.4854C183.925 57.9917 173.754 41.0629 167.841 36.2943ZM177.342 66.8887C176.812 69.0931 177.486 70.5751 181.278 75.9772L185.759 82.3615L167.752 95.0006L149.663 107.697L149.135 111.122L148.467 114.523L173.228 149.8L197.989 185.078L201.414 185.606L204.815 186.273L222.904 173.577L240.911 160.938L245.392 167.322C249.184 172.724 250.349 173.861 252.602 174.112C255.052 174.47 256.02 175.501 264.925 188.188C270.21 195.718 274.675 202.602 274.947 203.511C275.342 204.944 270.968 218.033 269.822 218.837C269.576 219.009 269.46 217.625 269.498 215.765C269.86 210.014 265.774 199.32 261.229 193.714C257.118 188.902 248.402 182.925 243.772 181.898C241.568 181.369 241.592 181.229 243.557 179.85C246.094 178.069 247.26 173.464 245.708 171.254C245.134 170.435 243.527 169.364 242.101 168.899C240.085 168.115 238.791 168.535 235.189 171.063C231.506 173.648 230.754 174.665 230.617 177.081L230.605 180.023L224.97 181.046C217.762 182.439 209.388 187.218 204.831 192.737L201.298 196.928L200.09 193.988C198.051 188.822 192.308 181.857 188.086 179.323C174.714 171.238 156.729 175.553 148.832 188.671L146.191 193.09L134.759 176.802L123.326 160.514L128.24 159.508C134.923 158.238 143.108 152.493 146.82 146.467C150.532 140.441 151.855 130.838 149.979 124.335C148.778 120.536 147.128 117.662 143.526 113.227L138.693 107.211L143.753 105.37C150.329 103.076 157.751 96.7664 161.43 90.5192L164.307 85.5674L167.077 86.5551C169.397 87.2485 170.609 86.8865 174.292 84.3013C177.893 81.7735 178.728 80.6992 178.676 78.5365C178.723 77.0372 178.262 75.1618 177.687 74.3433C176.136 72.1333 171.409 71.6642 168.871 73.4451C166.907 74.824 166.767 74.7995 167.019 72.5463C167.578 68.1218 165.149 58.2203 162.193 52.9646C158.711 46.6118 151.141 39.83 144.953 37.4539C142.682 36.4819 140.969 35.6075 141.215 35.4351C142.115 34.8032 156.018 34.9412 157.116 35.6361C157.682 36.0942 162.639 42.6335 168.039 50.3275C177.255 63.2842 177.92 64.4057 177.342 66.8887ZM162.17 67.0309C163.62 80.063 158.039 91.4329 146.915 98.3859C139.04 103.18 131.996 104.459 123.072 102.537C116.156 101.038 111.909 98.6434 106.733 93.3578C93.2802 79.5872 95.2253 56.597 110.768 45.321C121.515 37.6557 134.786 36.8933 146.427 43.3833C151.797 46.3339 152.707 47.283 156.885 53.7578C160.719 59.7416 161.549 61.9688 162.17 67.0309ZM171.633 81.0359C169.784 82.5784 168.957 82.7925 168.325 81.8921C167.635 80.9099 168.224 80.008 170.352 78.5143C174.036 75.929 175.169 78.0658 171.633 81.0359ZM239.211 176.792C237.246 178.171 236.059 178.394 235.484 177.575C234.623 176.347 238.313 172.902 240.181 173.301C242.271 173.667 241.912 174.896 239.211 176.792ZM264.118 211.234C267.147 228.778 255.708 245.726 238.721 248.852C220.989 252.135 204.573 240.933 200.618 222.939C199.407 217.558 201.024 207.504 204.13 201.659C206.353 197.167 207.654 195.887 214.447 191.119C220.913 186.581 223.026 185.587 226.982 185.131C240.563 183.418 251.243 188.017 259.023 198.927C262.298 203.593 263.268 205.844 264.118 211.234ZM95.171 58.9565C90.0528 73.4225 95.5403 91.6844 107.766 100.574L112.539 104.066L106.588 108.121C101.595 111.625 100.27 113.044 97.5892 118.102L94.541 124.029L88.7005 124.585C85.4895 124.884 76.6852 126.788 69.1346 128.911C53.6154 133.084 51.3622 132.833 43.9558 125.937C32.0627 114.736 27.3709 97.2599 32.9171 84.4482C34.4118 80.8335 35.1728 80.1772 47.3039 72.3954C61.0477 63.604 76.644 55.7113 92.5866 49.5304L102.732 45.7081L99.576 50.6111C97.8099 53.3168 95.7912 57.0551 95.171 58.9565ZM235.636 264.823C219.316 282.998 196.918 302.262 189.785 304.459C184.937 305.907 172.997 303.169 167.692 299.44C157.951 292.35 149.1 277.304 150.188 269.454C150.472 267.422 153.595 262.298 158.616 255.352C163.049 249.309 167.75 241.733 169.253 238.479L171.859 232.618L177.994 231.611C182.941 230.826 185.193 229.857 189.858 226.582L195.612 222.421L197.274 228.097C200.755 240.192 212.04 250.353 225.037 253.203C230.781 254.425 242.856 253.525 245.835 251.678C248.348 250.036 244.283 255.211 235.636 264.823ZM145.49 124.554C147.34 129.975 145.315 141.537 141.732 146.006C135.565 153.756 127.286 156.757 117.527 154.688C110.111 153.174 105.338 149.682 101.684 143.083C98.556 137.582 98.0186 133.683 99.1898 126.997C101.541 113.984 113.09 106.244 126.603 108.611C136.435 110.262 142.299 115.309 145.49 124.554ZM196.046 196.582C197.962 202.445 195.871 213.565 191.773 218.518C186.088 225.563 177.703 228.76 169.009 227.166C163.019 226.117 159.224 224.016 155.228 219.368C149.92 213.198 148.487 207.85 149.985 199.713C152.694 185.471 163.089 178.175 177.241 180.582C186.795 182.184 192.971 187.501 196.046 196.582Z" fill="current"/>
<path fill-rule="evenodd" clip-rule="evenodd" d="M251.827 176.489C250.599 177.351 250.477 178.048 251.387 178.997C252.068 179.618 253.183 179.814 253.837 179.354C254.492 178.894 254.687 177.78 254.334 176.928C253.751 175.75 253.054 175.628 251.827 176.489Z" fill="current"/>
<path fill-rule="evenodd" clip-rule="evenodd" d="M256.954 182.054C255.348 182.203 254.671 184.023 255.705 185.496C256.164 186.151 257.246 186.125 258.146 185.493C259.865 184.286 259.059 181.92 256.954 182.054Z" fill="current"/>
<path fill-rule="evenodd" clip-rule="evenodd" d="M165.704 147.262C164.033 146.969 162.659 148.667 163.52 149.895C163.98 150.549 164.873 150.778 165.528 150.318C166.92 149.341 167.016 147.563 165.704 147.262Z" fill="current"/>
<path fill-rule="evenodd" clip-rule="evenodd" d="M172.024 156.266C170.352 155.973 168.978 157.67 169.84 158.898C170.3 159.553 171.193 159.781 171.848 159.321C173.239 158.345 173.335 156.567 172.024 156.266Z" fill="current"/>
<path fill-rule="evenodd" clip-rule="evenodd" d="M160.857 142.967C160.399 143.533 160.368 144.533 160.77 145.106C161.172 145.678 162.123 145.989 162.868 145.832C163.556 145.594 163.563 144.733 162.816 143.669C162.069 142.605 161.258 142.32 160.857 142.967Z" fill="current"/>
<path fill-rule="evenodd" clip-rule="evenodd" d="M167.177 151.971C166.719 152.537 166.687 153.536 167.089 154.109C167.492 154.682 168.442 154.992 169.188 154.835C169.875 154.597 169.883 153.737 169.136 152.673C168.389 151.609 167.577 151.323 167.177 151.971Z" fill="current"/>
<path fill-rule="evenodd" clip-rule="evenodd" d="M173.496 160.974C173.038 161.54 173.007 162.54 173.409 163.113C173.811 163.686 174.762 163.996 175.507 163.839C176.195 163.601 176.202 162.74 175.455 161.676C174.708 160.612 173.897 160.327 173.496 160.974Z" fill="current"/>
<path fill-rule="evenodd" clip-rule="evenodd" d="M159.249 147.639C158.121 149.164 159.139 151.137 160.531 150.16C161.267 149.643 161.438 148.668 160.921 147.932C160.404 147.195 159.707 147.073 159.249 147.639Z" fill="current"/>
<path fill-rule="evenodd" clip-rule="evenodd" d="M162.254 152.616C161.517 153.133 161.395 153.83 161.961 154.288C163.487 155.416 165.46 154.398 164.483 153.006C163.966 152.27 162.991 152.099 162.254 152.616Z" fill="current"/>
<path fill-rule="evenodd" clip-rule="evenodd" d="M165.569 156.642C164.44 158.168 165.459 160.141 166.85 159.164C167.587 158.647 167.758 157.672 167.241 156.935C166.723 156.199 166.027 156.077 165.569 156.642Z" fill="current"/>
<path fill-rule="evenodd" clip-rule="evenodd" d="M168.574 161.62C167.837 162.137 167.715 162.833 168.281 163.291C169.806 164.42 171.779 163.401 170.802 162.01C170.285 161.273 169.31 161.102 168.574 161.62Z" fill="current"/>
<path fill-rule="evenodd" clip-rule="evenodd" d="M157.338 152.401C156.684 152.861 156.513 153.836 156.972 154.491C157.432 155.145 158.407 155.316 159.062 154.857C159.717 154.397 159.888 153.422 159.428 152.767C158.968 152.112 157.993 151.941 157.338 152.401Z" fill="current"/>
<path fill-rule="evenodd" clip-rule="evenodd" d="M160.989 156.558C159.605 156.675 159.714 158.919 161.116 159.524C162.321 160.022 163.392 158.415 162.588 157.269C162.3 156.86 161.628 156.598 160.989 156.558Z" fill="current"/>
<path fill-rule="evenodd" clip-rule="evenodd" d="M163.658 161.405C163.003 161.864 162.832 162.839 163.292 163.494C163.752 164.149 164.727 164.32 165.381 163.86C166.036 163.4 166.207 162.425 165.747 161.771C165.288 161.116 164.313 160.945 163.658 161.405Z" fill="current"/>
<path fill-rule="evenodd" clip-rule="evenodd" d="M152.033 161.378C148.032 158.811 142.548 162.66 143.03 167.698C143.344 170.409 143.689 170.9 146.189 172.2C150.034 174.022 155.347 171.148 155.276 167.043C155.313 163.963 154.936 163.251 152.033 161.378Z" fill="current"/>
<path fill-rule="evenodd" clip-rule="evenodd" d="M132.175 161.633C130.34 161.455 129.76 162.717 130.966 164.436C131.828 165.664 134.128 164.416 133.979 162.81C133.937 162.229 133.175 161.665 132.175 161.633Z" fill="current"/>
<path fill-rule="evenodd" clip-rule="evenodd" d="M136.771 168.181C134.936 168.003 134.356 169.266 135.562 170.984C136.424 172.212 138.724 170.964 138.575 169.358C138.533 168.777 137.771 168.213 136.771 168.181Z" fill="current"/>
<path fill-rule="evenodd" clip-rule="evenodd" d="M147.716 52.0081L145.493 49.5369L139.518 53.7308C133.543 57.9246 133.461 57.9821 132.812 63.3243C132.439 66.274 132.393 68.9939 132.623 69.3213C132.853 69.6487 135.729 70.4397 139.015 70.9435C144.669 71.862 145.111 71.7959 149.94 68.4063C152.723 66.453 155.007 64.484 154.94 64.0417C154.791 62.4362 150.021 54.422 147.716 52.0081Z" fill="current"/>
<path fill-rule="evenodd" clip-rule="evenodd" d="M122.541 45.7321C122.066 45.577 118.538 47.6869 114.772 50.3296L107.979 55.098L112.288 61.2368C116.539 67.2937 116.678 67.3181 121.717 68.0572C124.446 68.4633 127.084 68.5665 127.493 68.2792C127.903 67.992 128.948 65.3036 129.681 62.3452L131.272 56.9526L127.365 51.3868C125.24 48.3584 123.041 45.7478 122.541 45.7321Z" fill="current"/>
<path fill-rule="evenodd" clip-rule="evenodd" d="M138.29 74.2623C135.062 73.8404 132.17 73.5492 131.842 73.779C131.433 74.0662 130.633 76.5823 129.982 79.4832C128.776 84.7278 128.833 84.8097 132.97 90.7029L137.106 96.5961L141.38 94.3296C143.68 93.0814 146.872 90.8409 148.443 89.2495L151.315 86.3786L147.769 80.8041L144.165 75.1478L138.29 74.2623Z" fill="current"/>
<path fill-rule="evenodd" clip-rule="evenodd" d="M121.156 71.2611C116.166 70.2434 116.027 70.219 109.888 74.5278L103.749 78.8366L109.05 85.867L114.294 92.8156L120.278 88.9822L126.343 85.0914L126.762 79.4217C127.02 76.3083 126.951 73.4247 126.664 73.0154C126.377 72.6062 123.86 71.8066 121.156 71.2611Z" fill="current"/>
<path fill-rule="evenodd" clip-rule="evenodd" d="M251.564 195.61C244.672 193.973 237.781 199.298 238.273 205.917C238.599 211.43 241.315 214.777 246.421 215.959C250.076 216.814 251.263 216.591 254.537 214.293C257.811 211.995 258.424 210.954 258.862 207.226C259.535 201.745 256.506 196.907 251.564 195.61Z" fill="current"/>
<path fill-rule="evenodd" clip-rule="evenodd" d="M227.524 192.692C221.718 187.726 212.948 191.072 211.082 198.857C210.226 202.512 210.449 203.699 212.747 206.973C215.045 210.247 216.086 210.861 219.814 211.298C225.017 211.922 228.709 209.698 230.972 204.566C231.731 202.689 232.385 201.009 232.327 200.927C232.212 200.763 231.678 199.306 231.086 197.767C230.519 196.088 228.967 193.878 227.524 192.692Z" fill="current"/>
<path fill-rule="evenodd" clip-rule="evenodd" d="M251.028 225.308C248.732 223.255 242.578 222.321 239.639 223.529C233.981 225.912 231.526 234.599 235.031 239.592C238.535 244.584 247.539 245.228 251.703 240.717C255.328 236.83 254.916 228.933 251.028 225.308Z" fill="current"/>
<path fill-rule="evenodd" clip-rule="evenodd" d="M222.348 219.782C216.092 215.743 207.519 219.195 206.111 226.414C205.118 231.265 206.646 234.835 210.787 237.427C214.14 239.594 219.383 239.579 222.494 237.396C225.522 235.27 227.4 230.287 226.617 226.56C225.743 222.531 224.997 221.466 222.348 219.782Z" fill="current"/>
<path fill-rule="evenodd" clip-rule="evenodd" d="M87.6643 69.8455C87.0008 69.9446 86.3216 70.5435 86.1752 71.3793C85.858 73.1903 87.8499 74.1134 89.4869 72.9644C90.7965 72.0452 89.5484 69.7448 87.6643 69.8455Z" fill="current"/>
<path fill-rule="evenodd" clip-rule="evenodd" d="M100.992 101.541C100.338 102.001 99.8308 102.845 99.8725 103.427C99.9315 104.729 103.242 105.094 103.461 103.84C103.754 102.168 102.138 100.737 100.992 101.541Z" fill="current"/>
<path fill-rule="evenodd" clip-rule="evenodd" d="M95.4109 105.947C93.0113 106.532 92.7114 109.064 95.0465 109.258C96.4639 109.362 96.8976 108.936 97.0267 107.379C97.1558 105.822 96.8441 105.552 95.4109 105.947Z" fill="current"/>
<path fill-rule="evenodd" clip-rule="evenodd" d="M214.935 271.534C213.411 271.626 212.702 274.445 213.964 275.026C215.702 275.761 217.715 274.103 216.738 272.712C216.279 272.057 215.434 271.55 214.935 271.534Z" fill="current"/>
<path fill-rule="evenodd" clip-rule="evenodd" d="M208.305 276.188C207.002 276.247 206.638 279.557 207.891 279.777C208.367 279.932 209.276 279.66 209.931 279.201C211.158 278.339 209.91 276.038 208.305 276.188Z" fill="current"/>
<path fill-rule="evenodd" clip-rule="evenodd" d="M132.59 114.183C113.972 103.671 93.9696 125.652 106.206 143.086C117.467 159.128 142.574 151.035 142.492 131.423C142.467 124.599 138.271 117.403 132.59 114.183Z" fill="current"/>
<path fill-rule="evenodd" clip-rule="evenodd" d="M183.064 186.268C176.284 182.353 168.109 182.715 161.643 187.254C152.476 193.688 150.328 205.947 156.763 215.114C165.265 227.228 183.083 226.329 190.489 213.556C196.031 204.045 192.714 191.835 183.064 186.268Z" fill="current"/>
</svg>
