<svg width="920" height="813" viewBox="0 0 920 813" fill="current" xmlns="http://www.w3.org/2000/svg">
<g clip-path="url(#clip0)">
<path fill-rule="evenodd" clip-rule="evenodd" d="M106.368 44.1765C136.594 72.9407 136.94 73.371 136.949 78.3481C136.961 80.4888 136.056 81.5536 111.833 107.574L86.6992 134.552L86.1516 138.188C84.6754 148.24 95.1857 157.938 104.857 155.482L108.765 154.436L170.06 90.5934C218.538 40.1047 231.777 26.6465 233.204 26.2807C238.797 24.7096 245.521 30.9055 244.67 36.7871C244.417 38.9797 240.575 43.1304 183.34 103.84L122.359 168.487L121.811 172.123C120.407 181.533 129.085 190.096 138.772 188.871L142.179 188.464L186.056 142.924C221.016 106.641 230.356 97.2799 231.833 96.8609C236.322 95.6576 242.185 98.9048 243.943 103.518C245.838 108.667 245.4 109.467 231.203 124.953C222.714 134.213 218.193 139.644 217.988 140.766C217.437 143.385 217.971 148.152 219.169 150.407C219.89 151.802 230.668 162.465 251.215 182.018L282.233 211.537L277.465 217.341C261.901 236.19 251.817 255.287 244.683 279.218L241.476 289.955L236.315 292.546C220.993 300.372 213.19 310.385 206.127 331.748C200.898 347.557 195.2 368.393 194.078 376.146C192.807 385.076 193.407 394.873 195.573 400.077C196.619 402.492 197.254 407.152 197.481 413.147C197.998 427.225 200.359 434.946 210.406 455.559C257.369 551.857 303.363 621.177 341.54 653.148C356.274 665.547 370.573 673.984 384.443 678.565C407.872 686.362 423.939 684.214 436.052 671.712C442.994 664.53 446.788 655.669 446.772 646.732C446.804 644.431 444.734 622.69 442.262 598.539C437.231 549.647 436.955 540.869 439.637 524.563L440.384 519.697L448.114 518.942C482.807 515.356 513.984 502.544 540.325 480.871C549.754 473.116 564.509 457.045 571.1 447.399C588.477 421.657 598.825 390.949 600.513 359.706L600.988 350.932L608.518 349.48C624.108 346.472 633.584 346.263 670.094 348.361C716.286 351.054 727.936 351.393 733.181 350.301C746.847 347.389 757.832 336.753 761.762 322.649C763.268 316.985 762.209 302.797 759.605 294.539C746.094 252.178 705.736 215.698 622.227 170.497C585.476 150.63 518.367 119.819 503.303 115.927C495.689 113.953 485.183 112.979 478.785 113.581C475.851 113.831 472.345 113.435 469.667 112.508C462.13 110 450.951 110.413 438.268 113.653C430.553 115.639 398.977 127.057 392.243 130.28C377.264 137.52 369.347 145.499 363.43 159.537L361.637 163.914L352.955 166.804C330.38 174.318 312.047 184.855 293.236 201.222L285.411 207.971L255.486 179.797C222.442 148.554 222.216 148.338 222.939 143.044C223.364 140.104 223.713 139.624 235.459 127.281C248.067 114.033 249.556 111.901 249.502 107.084C249.504 100.395 242.646 92.7532 235.961 92.0698C228.249 91.2195 231.975 87.8709 184.331 137.937C138.56 186.034 139.528 185.13 134.756 184.137C131.282 183.367 128.595 181.316 127.412 178.366C125.127 172.946 120.656 178.324 187.606 107.292C246.208 45.1452 248.329 42.8035 249.234 39.8122C250.255 36.0188 249.137 30.3926 246.706 27.1666C243.063 22.3812 236.125 20.0372 230.43 21.7147C228.056 22.3958 223.24 27.3432 166.249 86.6632L104.55 150.931L101.062 150.856C97.952 150.837 97.1834 150.511 94.4099 147.872C91.5232 145.125 91.2788 144.588 91.189 141.055L91.1885 137.202L115.644 111.504L140.099 85.8063L141.26 81.6392C142.058 78.6471 142.096 76.4532 141.31 73.8795L140.141 70.2332L110.651 42.1692L81.1047 14.0514L79.5857 15.6476L78.0667 17.2437L106.368 44.1765ZM226.204 308.271C226.996 309.025 227.532 309.028 228.077 308.229C228.42 307.642 228.265 306.785 227.699 306.246C227.139 305.815 226.939 305.118 227.294 304.745C227.648 304.373 228.354 304.538 228.813 305.076C229.379 305.615 230.243 305.727 230.862 305.303C231.482 304.878 231.553 304.237 231.044 303.752C229.912 302.674 230.665 301.769 232.202 302.421C233.468 303.017 235.214 301.637 234.308 300.775C233.912 300.398 234.216 300.079 235.163 299.763C235.958 299.608 237.62 298.655 238.904 297.646C240.244 296.691 242.296 296.008 243.854 296.071C245.198 296.133 246.517 295.766 246.601 295.338C246.755 294.269 253.329 292.008 253.383 292.972C253.35 293.346 252.775 293.61 252.132 293.606C250.309 293.595 249.359 294.82 250.378 295.79C250.83 296.221 250.872 296.97 250.467 297.396C250.062 297.822 249.475 297.871 249.18 297.388C248.891 297.012 248.084 296.953 247.515 297.324C246.744 297.908 246.774 298.443 247.566 299.198C248.359 299.952 248.451 300.648 247.793 301.34C247.084 302.085 246.598 302.028 245.952 301.007C245.362 300.04 244.82 299.93 244.212 300.568C243.605 301.207 243.742 301.743 244.737 302.284C246.286 303.15 245.422 304.964 240.782 310.18C239.218 311.937 238.128 313.535 238.355 313.751C239.091 314.451 237.447 315.725 236.35 315.291C235.746 315.019 235.555 315.446 235.734 316.732C235.999 318.606 235.999 318.606 234.322 318.328C232.487 318.103 231.713 319.597 233.071 320.89C234.26 322.021 233.173 322.71 231.567 321.79C230.793 321.357 229.929 321.245 229.625 321.564C228.764 322.469 230.063 324.617 231.225 324.303C232.128 324.148 226.314 333.317 225.075 334.166C224.765 334.378 224.271 335.124 224.048 335.926C223.768 336.673 222.996 337.257 222.252 337.36C221.185 337.46 220.995 337.887 221.293 339.387C221.704 340.995 221.552 341.155 220.563 340.721C218.806 339.961 217.462 341.825 219.068 342.745C220.176 343.394 220.156 343.983 218.78 346.222C217.892 347.608 216.746 349.153 216.284 349.525C215.822 349.896 215.599 350.698 215.736 351.234C215.942 352.038 215.638 352.357 214.369 352.67C212.886 352.982 212.689 353.302 213.196 354.697C213.514 355.608 213.568 356.572 213.264 356.891C212.961 357.211 212.633 357.102 212.558 356.726C212.228 355.601 210.02 355.426 209.809 356.442C209.616 357.779 211.138 359.126 212.005 358.329C212.308 358.009 211.951 359.292 211.099 361.32C209.956 363.882 209.158 364.947 208.255 365.102C207.296 365.203 207.111 365.737 207.466 367.291C208.077 369.596 207.589 370.45 206.275 368.997C205.765 368.512 205.009 368.4 204.604 368.826C204.097 369.358 204.348 370.002 205.191 370.702C206.254 371.512 206.347 372.208 205.567 373.595C205.033 374.608 204.518 375.943 204.503 376.639C204.45 377.602 204.09 377.867 203.22 377.647C201.808 377.318 200.804 379.506 202.127 380.156C203.28 380.645 201.642 385.879 199.935 386.993C198.848 387.682 198.792 387.628 198.553 385.272C198.371 382.969 198.472 382.863 199.986 383.086C201.228 383.254 201.537 383.042 201.534 382.025C201.475 380.955 201.192 380.685 200.006 380.571C198.877 380.511 198.645 380.188 198.901 379.012C199.073 378.264 199.77 377.305 200.39 376.881C201.325 376.351 201.352 375.87 200.616 375.17C199.937 374.523 199.898 372.864 200.321 370.833C200.755 369.016 201.384 367.789 201.667 368.058C201.95 368.328 202.682 368.011 203.239 367.426C204.049 366.575 203.969 366.092 202.974 365.551C201.973 364.903 201.931 364.153 202.816 361.751C203.712 359.562 204.308 358.709 205.216 358.661C206.282 358.561 206.309 358.079 205.645 356.737C204.623 354.751 205.683 350.69 207.759 348.509C208.467 347.764 208.691 346.963 208.244 346.639C207.023 345.882 208.726 339.899 210.227 339.908C211.514 339.916 211.96 338.313 210.941 337.343C210.036 336.482 211.406 332.209 213.145 330.721C213.86 330.083 214.071 329.068 213.708 328.316C213.106 327.135 213.156 327.082 214.518 327.465C216.913 328.122 217.946 326.469 216.051 325.173C214.604 324.201 214.58 323.773 215.994 321.266C216.819 319.719 218.073 318.175 218.806 317.858C219.539 317.542 219.818 316.794 219.5 315.882C219.05 314.542 219.151 314.435 220.771 314.659C222.392 314.883 222.493 314.777 222.189 313.17C221.811 311.187 222.26 310.601 223.449 311.732C223.958 312.217 224.596 312.114 225.039 311.421C225.382 310.835 225.227 309.977 224.661 309.439C224.101 309.007 223.901 308.31 224.306 307.885C224.711 307.459 225.525 307.624 226.204 308.271ZM379.112 147.592C379.904 148.347 380.44 148.35 380.985 147.55C381.328 146.964 381.173 146.107 380.607 145.568C380.047 145.136 379.847 144.44 380.252 144.014C380.657 143.588 381.301 143.592 381.753 144.023C383.055 145.262 384.622 144.522 384.261 142.861C383.832 140.932 384.282 140.346 385.414 141.423C386.376 142.339 387.862 141.117 387.463 139.723C387.213 139.08 387.466 138.814 388.324 138.819C388.967 138.823 390.01 138.294 390.617 137.656C392.339 135.847 396.059 134.318 396.851 135.072C397.927 136.095 399.506 135.57 399.434 134.285C399.344 132.679 404.852 130.519 406.097 131.704C407.512 133.05 408.826 132.577 408.245 130.807C407.795 129.466 407.896 129.36 409.549 129.21C410.565 129.162 412.194 128.584 413.18 128.001C414.735 127.047 415.056 127.049 415.229 128.228C415.402 129.406 415.679 129.569 416.671 129.093C417.353 128.83 417.74 128.083 417.654 127.494C417.341 126.689 417.695 126.317 418.857 126.003C419.754 125.74 421.434 125.109 422.583 124.581C423.784 123.999 424.534 124.004 424.4 124.485C423.79 126.033 425.509 127.06 426.623 125.89C427.23 125.251 427.239 124.449 426.617 123.856C425.761 122.941 425.762 122.941 427.325 123.111C428.246 123.278 429.357 123.017 429.813 122.538C431.534 120.729 432.871 120.684 433.926 122.296C434.686 123.424 435.183 123.695 435.69 123.163C436.804 121.992 436.479 120.974 434.971 120.857C433.944 120.69 433.938 120.583 434.828 120.214C435.403 119.95 436.362 119.849 436.86 120.12C437.408 120.337 438.728 119.971 439.809 119.174C441.465 118.114 441.894 118.117 442.603 119.299C443.613 121.071 445.981 120.283 445.552 118.354C445.283 117.389 445.486 117.176 446.198 117.448C446.695 117.718 447.491 117.563 447.896 117.137C448.25 116.765 449.796 116.614 451.417 116.838C452.93 117.061 454.482 117.017 454.836 116.645C455.646 115.793 458.452 116.132 458.455 117.149C458.479 117.577 458.006 117.735 457.508 117.464C457.017 117.3 456.12 117.562 455.513 118.201C453.943 119.85 452.504 120.002 451.304 118.657C450.732 118.011 449.862 117.791 449.242 118.216C448.572 118.693 448.501 119.335 449.01 119.82C449.52 120.305 449.713 120.895 449.409 121.214C449.156 121.48 448.507 121.369 447.998 120.884C447.318 120.238 446.845 120.395 446.261 121.462C444.942 123.755 440.647 125.548 439.401 124.363C438.043 123.07 436.482 123.917 437.266 125.474C437.811 126.601 437.71 126.707 435.943 126.75C434.928 126.797 434.094 127.22 433.96 127.701C433.677 129.358 428.446 131.681 427.371 130.657C425.956 129.311 424.8 129.732 425.066 131.607C425.25 132.999 425.149 133.106 423.636 132.882C422.501 132.715 421.977 132.925 422.019 133.675C422.114 135.388 413.709 140.367 412.318 139.448C410.983 138.584 409.092 140.231 409.756 141.573C410.12 142.325 409.917 142.538 408.94 142.318C408.127 142.152 407.355 142.736 406.772 143.803C406.233 144.709 405.36 145.399 404.925 145.29C404.383 145.179 403.966 145.391 403.883 145.818C403.799 146.246 401.908 147.893 399.638 149.485C396.338 151.819 395.29 152.241 393.86 151.59C391.661 150.613 390.693 151.517 391.924 153.398C392.809 154.848 392.809 154.848 390.545 154.62C388.439 154.34 388.281 154.392 388.579 155.892C388.827 157.446 388.725 157.552 387.117 157.542C385.773 157.481 385.362 157.799 385.315 158.869C385.306 159.672 384.964 160.258 384.642 160.256C384.263 160.201 382.467 161.635 380.526 163.335C376.907 166.684 375.966 167.107 376.293 165.289C376.481 163.845 374.842 163.3 373.728 164.471C373.222 165.003 373.359 165.539 374.354 166.08C375.406 166.675 375.486 167.157 374.828 167.849C374.17 168.541 373.684 168.484 373.038 167.463C372.334 166.389 371.906 166.386 371.045 167.29C370.184 168.195 370.208 168.623 371.259 169.218C372.204 169.813 372.329 170.135 371.596 170.451C371.021 170.715 370.208 170.55 369.755 170.119C369.246 169.634 368.665 169.791 368.272 170.431C367.879 171.071 367.977 171.874 368.418 172.091C369.809 173.009 367.888 174.121 366.396 173.309C365.231 172.606 365.15 172.124 366.083 170.578C366.723 169.565 367.125 168.123 367.032 167.426C366.859 166.248 367.062 166.035 368.361 166.257C370.309 166.59 370.794 164.72 369.031 163.853C368.036 163.312 368.051 162.616 369.111 160.482C369.778 158.988 370.981 157.496 371.663 157.233C372.446 156.863 372.777 156.063 372.559 155.044C372.324 153.705 372.369 153.545 373.465 153.98C374.895 154.631 376.42 153.142 375.288 152.064C374.835 151.633 374.641 151.043 374.894 150.777C375.147 150.511 375.847 150.569 376.503 150.787C378.317 151.601 379.553 149.736 377.891 148.762C377.003 148.222 376.758 147.685 377.214 147.206C377.619 146.781 378.432 146.946 379.112 147.592ZM336.651 207.965C384.392 163.466 430.496 131.908 462.933 121.511C477.361 116.891 492.267 116.982 507.006 121.783C524.865 127.726 592.778 159.505 624.674 176.881C689.635 212.442 728.426 243.881 746.442 275.727C753.512 288.133 758.65 305.29 758.148 314.546C757.619 324.282 752.541 334.152 745.289 339.619C740.198 343.495 731.629 346.492 725.523 346.562C722.898 346.599 701.24 345.556 677.261 344.231C648.873 342.664 630.456 342.069 624.43 342.621C601.482 344.406 580.164 351.392 561.152 363.209C546.748 372.111 545.223 373.6 502.439 418.558C459.352 463.836 458.396 464.954 449.691 480.902C436.564 505.01 430.887 534.891 433.926 563.434C439.998 620.414 442.127 641.298 442.167 644.884C442.275 650.664 439.598 659.371 436.182 664.434C430.434 672.855 419.44 678.513 408.779 678.608C402.938 678.625 390.153 676.192 384.395 673.855C382.315 673.093 379.191 671.843 377.439 671.19C373.602 669.668 367.576 666.366 358.958 660.801C354.066 657.667 349.183 653.73 339.415 644.84C327.049 633.578 322.667 629.002 309.904 613.511C304.041 606.411 284.559 579.051 278.785 569.703C277.555 567.822 272.722 559.979 267.896 552.243C257.822 535.965 230.605 487.151 226.264 477.545C225.895 476.686 224.628 474.163 223.487 471.962C222.346 469.761 221.13 467.184 220.71 466.379C220.341 465.52 217.927 460.689 215.338 455.589C207.094 439.43 205.017 433.905 202.791 421.85C201.667 416.116 201.677 404.771 202.687 400.763C202.993 399.534 203.327 397.824 203.386 396.968C203.561 391.457 212.512 369.356 221.149 353.14C227.894 340.498 239.58 321.304 245.06 313.846C245.959 312.674 249.792 307.399 253.575 302.178C262.229 290.137 273.839 275.33 282.988 264.469C293.397 252.171 325.542 218.279 336.651 207.965ZM199.531 389.345C199.814 389.614 199.855 390.364 199.57 391.004C199.144 392.018 199.036 392.018 198.858 390.732C198.604 389.072 198.795 388.645 199.531 389.345Z" fill="current"/>
<path fill-rule="evenodd" clip-rule="evenodd" d="M217.085 323.52C217.541 324.968 219.781 324.768 219.697 323.269C219.625 321.984 218.032 321.279 217.272 322.077C217.019 322.343 216.948 322.984 217.085 323.52Z" fill="current"/>
<path fill-rule="evenodd" clip-rule="evenodd" d="M220.123 320.328C220.311 320.811 220.871 321.243 221.514 321.247C222.908 321.255 223.247 319.652 222.115 318.574C221.21 317.713 219.723 318.934 220.123 320.328Z" fill="current"/>
<path fill-rule="evenodd" clip-rule="evenodd" d="M223.161 317.136C223.348 317.619 223.908 318.05 224.552 318.054C225.946 318.063 226.285 316.459 225.153 315.382C224.248 314.52 222.761 315.742 223.161 317.136Z" fill="current"/>
<path fill-rule="evenodd" clip-rule="evenodd" d="M226.437 314.373C227.104 314.805 227.962 314.811 228.367 314.385C229.481 313.215 227.637 311.865 226.347 312.767C225.469 313.35 225.493 313.779 226.437 314.373Z" fill="current"/>
<path fill-rule="evenodd" clip-rule="evenodd" d="M229.543 311.449C230.845 312.688 232.337 311.573 231.554 310.016C231.003 308.782 230.032 308.669 229.069 309.68C228.715 310.052 228.921 310.856 229.543 311.449Z" fill="current"/>
<path fill-rule="evenodd" clip-rule="evenodd" d="M231.762 307.984C232.149 309.164 233.612 309.44 234.523 308.483C234.928 308.057 234.723 307.253 234.1 306.661C232.912 305.529 231.3 306.429 231.762 307.984Z" fill="current"/>
<path fill-rule="evenodd" clip-rule="evenodd" d="M235.044 305.328C235.712 305.761 236.569 305.766 236.975 305.34C237.38 304.915 237.332 304.058 236.867 303.413C236.289 302.66 235.753 302.657 234.993 303.455C234.234 304.253 234.264 304.788 235.044 305.328Z" fill="current"/>
<path fill-rule="evenodd" clip-rule="evenodd" d="M238.082 302.136C238.749 302.568 239.607 302.574 240.012 302.148C241.126 300.977 239.282 299.628 237.993 300.53C237.114 301.113 237.138 301.542 238.082 302.136Z" fill="current"/>
<path fill-rule="evenodd" clip-rule="evenodd" d="M241.189 299.212C241.811 299.804 242.675 299.917 243.08 299.491C243.485 299.065 243.33 298.208 242.708 297.616C242.085 297.023 241.221 296.911 240.816 297.336C240.411 297.762 240.566 298.619 241.189 299.212Z" fill="current"/>
<path fill-rule="evenodd" clip-rule="evenodd" d="M212.112 336.227C212.779 336.659 213.637 336.664 214.042 336.239C215.156 335.068 213.312 333.719 212.022 334.621C211.144 335.204 211.168 335.632 212.112 336.227Z" fill="current"/>
<path fill-rule="evenodd" clip-rule="evenodd" d="M214.393 332.923C214.661 333.888 217.173 333.743 217.119 332.779C217.152 332.405 216.794 331.76 216.341 331.329C215.492 330.521 214.006 331.743 214.393 332.923Z" fill="current"/>
<path fill-rule="evenodd" clip-rule="evenodd" d="M217.443 329.945C217.768 330.964 219.957 330.816 220.163 329.694C220.195 329.319 219.888 328.622 219.436 328.191C218.473 327.275 217.044 328.551 217.443 329.945Z" fill="current"/>
<path fill-rule="evenodd" clip-rule="evenodd" d="M220.719 327.182C221.387 327.614 222.244 327.62 222.65 327.194C223.055 326.768 223.007 325.912 222.542 325.267C221.964 324.514 221.428 324.511 220.668 325.309C219.909 326.107 219.939 326.642 220.719 327.182Z" fill="current"/>
<path fill-rule="evenodd" clip-rule="evenodd" d="M223.507 323.346C223.775 324.311 226.286 324.166 226.232 323.202C226.265 322.828 225.908 322.183 225.455 321.753C224.606 320.945 223.12 322.166 223.507 323.346Z" fill="current"/>
<path fill-rule="evenodd" clip-rule="evenodd" d="M226.795 320.797C227.463 321.23 228.32 321.235 228.725 320.809C229.13 320.384 229.083 319.527 228.618 318.882C228.04 318.129 227.504 318.126 226.744 318.924C225.985 319.722 226.015 320.257 226.795 320.797Z" fill="current"/>
<path fill-rule="evenodd" clip-rule="evenodd" d="M229.833 317.605C230.5 318.037 231.358 318.043 231.763 317.617C232.168 317.191 232.121 316.335 231.656 315.69C231.078 314.937 230.542 314.934 229.782 315.732C229.023 316.53 229.053 317.065 229.833 317.605Z" fill="current"/>
<path fill-rule="evenodd" clip-rule="evenodd" d="M232.6 314.358C233.053 314.789 233.765 315.061 234.188 314.956C235.141 314.748 234.84 312.231 233.874 312.225C232.588 312.217 231.807 313.604 232.6 314.358Z" fill="current"/>
<path fill-rule="evenodd" clip-rule="evenodd" d="M235.164 311.323C235.352 311.806 235.912 312.237 236.555 312.241C237.95 312.25 238.289 310.647 237.157 309.569C236.251 308.707 234.765 309.929 235.164 311.323Z" fill="current"/>
<path fill-rule="evenodd" clip-rule="evenodd" d="M238.441 308.56C239.108 308.993 239.966 308.998 240.371 308.572C240.776 308.147 240.728 307.29 240.263 306.645C239.685 305.892 239.149 305.889 238.39 306.687C237.63 307.485 237.66 308.02 238.441 308.56Z" fill="current"/>
<path fill-rule="evenodd" clip-rule="evenodd" d="M241.207 305.313C242.396 306.444 244.025 305.865 243.575 304.525C243.432 303.882 242.917 303.29 242.589 303.181C241.341 302.905 240.358 304.505 241.207 305.313Z" fill="current"/>
<path fill-rule="evenodd" clip-rule="evenodd" d="M208.565 344.714C209.009 345.948 210.472 346.224 211.383 345.267C211.839 344.788 211.696 344.145 211.029 343.712C209.694 342.848 208.229 343.481 208.565 344.714Z" fill="current"/>
<path fill-rule="evenodd" clip-rule="evenodd" d="M211.535 341.254C211.675 342.807 213.156 343.404 214.168 342.34C214.877 341.595 214.847 341.06 214.067 340.52C212.896 339.71 211.526 340.13 211.535 341.254Z" fill="current"/>
<path fill-rule="evenodd" clip-rule="evenodd" d="M214.573 338.062C214.656 339.56 216.199 340.319 216.941 339.2C217.283 338.613 217.236 337.757 216.839 337.38C215.934 336.518 214.513 336.991 214.573 338.062Z" fill="current"/>
<path fill-rule="evenodd" clip-rule="evenodd" d="M217.703 335.566C217.944 337.012 218.978 337.286 220.041 336.169C220.396 335.796 220.19 334.992 219.568 334.4C218.266 333.161 217.438 333.691 217.703 335.566Z" fill="current"/>
<path fill-rule="evenodd" clip-rule="evenodd" d="M220.211 332.477C220.655 333.711 222.117 333.987 223.029 333.03C223.484 332.551 223.341 331.908 222.674 331.475C221.339 330.611 219.874 331.244 220.211 332.477Z" fill="current"/>
<path fill-rule="evenodd" clip-rule="evenodd" d="M223.18 329.017C223.32 330.57 224.801 331.167 225.813 330.103C226.522 329.358 226.492 328.823 225.712 328.283C224.541 327.473 223.171 327.893 223.18 329.017Z" fill="current"/>
<path fill-rule="evenodd" clip-rule="evenodd" d="M226.677 326.362C227.034 327.007 227.746 327.279 228.428 327.015C229.787 326.382 229.733 325.418 228.246 324.713C226.766 324.115 226.006 324.913 226.677 326.362Z" fill="current"/>
<path fill-rule="evenodd" clip-rule="evenodd" d="M206.38 353.584C206.407 355.03 207.944 355.681 208.906 354.67C209.463 354.085 209.693 353.391 209.41 353.121C208.674 352.421 206.282 352.781 206.38 353.584Z" fill="current"/>
<path fill-rule="evenodd" clip-rule="evenodd" d="M209.418 350.392C209.385 350.767 209.743 351.411 210.196 351.842C211.045 352.65 212.531 351.428 212.144 350.248C211.875 349.283 209.364 349.429 209.418 350.392Z" fill="current"/>
<path fill-rule="evenodd" clip-rule="evenodd" d="M212.459 348.217C212.569 349.234 213.919 349.403 214.78 348.499C215.185 348.073 215.092 347.377 214.639 346.946C213.79 346.138 212.387 346.932 212.459 348.217Z" fill="current"/>
<path fill-rule="evenodd" clip-rule="evenodd" d="M215.652 345.882C216.105 346.313 216.957 346.211 217.514 345.626C218.071 345.04 218.13 344.184 217.677 343.753C217.224 343.323 216.372 343.424 215.816 344.01C215.259 344.595 215.199 345.451 215.652 345.882Z" fill="current"/>
<path fill-rule="evenodd" clip-rule="evenodd" d="M203.951 363.845C204.728 365.295 205.694 365.3 206.259 363.912C206.489 363.218 206.182 362.521 205.52 362.195C204.04 361.597 203.28 362.396 203.951 363.845Z" fill="current"/>
<path fill-rule="evenodd" clip-rule="evenodd" d="M206.688 360.062C206.759 361.347 208.252 362.159 209.011 361.361C209.416 360.935 209.431 360.239 208.978 359.808C208.016 358.893 206.685 359.045 206.688 360.062Z" fill="current"/>
<path fill-rule="evenodd" clip-rule="evenodd" d="M201.033 373.032C201.477 374.265 202.939 374.542 203.851 373.584C204.307 373.105 204.163 372.462 203.496 372.03C202.162 371.165 200.696 371.799 201.033 373.032Z" fill="current"/>
<path fill-rule="evenodd" clip-rule="evenodd" d="M370.737 162.74C371.405 163.172 372.262 163.177 372.668 162.752C373.781 161.581 371.937 160.232 370.648 161.134C369.769 161.717 369.793 162.145 370.737 162.74Z" fill="current"/>
<path fill-rule="evenodd" clip-rule="evenodd" d="M373.844 159.815C375.146 161.054 376.638 159.94 375.854 158.383C375.303 157.148 374.332 157.035 373.37 158.046C373.016 158.419 373.221 159.223 373.844 159.815Z" fill="current"/>
<path fill-rule="evenodd" clip-rule="evenodd" d="M376.062 156.35C376.45 157.53 377.912 157.807 378.824 156.849C379.229 156.424 379.023 155.619 378.401 155.027C377.212 153.896 375.601 154.796 376.062 156.35Z" fill="current"/>
<path fill-rule="evenodd" clip-rule="evenodd" d="M379.345 153.695C380.012 154.127 380.87 154.132 381.275 153.707C381.68 153.281 381.632 152.425 381.168 151.779C380.59 151.027 380.053 151.023 379.294 151.821C378.534 152.62 378.564 153.155 379.345 153.695Z" fill="current"/>
<path fill-rule="evenodd" clip-rule="evenodd" d="M382.383 150.503C383.05 150.935 383.908 150.94 384.313 150.514C385.427 149.344 383.583 147.995 382.293 148.897C381.414 149.48 381.438 149.908 382.383 150.503Z" fill="current"/>
<path fill-rule="evenodd" clip-rule="evenodd" d="M385.421 147.31C386.088 147.743 386.946 147.748 387.351 147.322C388.465 146.152 386.621 144.802 385.331 145.704C384.452 146.288 384.476 146.716 385.421 147.31Z" fill="current"/>
<path fill-rule="evenodd" clip-rule="evenodd" d="M388.458 144.118C389.126 144.55 389.984 144.555 390.389 144.13C391.503 142.959 389.659 141.61 388.369 142.512C387.49 143.095 387.514 143.523 388.458 144.118Z" fill="current"/>
<path fill-rule="evenodd" clip-rule="evenodd" d="M391.565 141.194C392.187 141.786 393.051 141.899 393.456 141.473C393.861 141.047 393.706 140.19 393.084 139.598C392.461 139.005 391.597 138.893 391.192 139.318C390.787 139.744 390.942 140.601 391.565 141.194Z" fill="current"/>
<path fill-rule="evenodd" clip-rule="evenodd" d="M393.721 137.568C394.052 138.694 396.259 138.868 396.471 137.852C396.715 136.463 395.142 135.168 394.281 136.073C393.876 136.499 393.647 137.193 393.721 137.568Z" fill="current"/>
<path fill-rule="evenodd" clip-rule="evenodd" d="M376.9 162.724C377.353 163.155 378.065 163.427 378.488 163.323C379.441 163.114 379.14 160.597 378.175 160.591C376.888 160.583 376.108 161.97 376.9 162.724Z" fill="current"/>
<path fill-rule="evenodd" clip-rule="evenodd" d="M379.465 159.69C379.652 160.172 380.212 160.604 380.856 160.608C382.25 160.616 382.589 159.013 381.457 157.936C380.552 157.074 379.065 158.296 379.465 159.69Z" fill="current"/>
<path fill-rule="evenodd" clip-rule="evenodd" d="M382.741 156.927C383.408 157.359 384.266 157.364 384.671 156.939C385.076 156.513 385.028 155.656 384.564 155.011C383.986 154.259 383.45 154.255 382.69 155.053C381.931 155.851 381.96 156.387 382.741 156.927Z" fill="current"/>
<path fill-rule="evenodd" clip-rule="evenodd" d="M385.779 153.735C386.446 154.167 387.304 154.172 387.709 153.746C388.823 152.576 386.979 151.227 385.689 152.129C384.811 152.712 384.835 153.14 385.779 153.735Z" fill="current"/>
<path fill-rule="evenodd" clip-rule="evenodd" d="M388.817 150.542C389.484 150.974 390.342 150.98 390.747 150.554C391.152 150.128 391.104 149.272 390.64 148.627C390.062 147.874 389.525 147.871 388.766 148.669C388.006 149.467 388.036 150.002 388.817 150.542Z" fill="current"/>
<path fill-rule="evenodd" clip-rule="evenodd" d="M391.584 147.295C392.772 148.426 394.402 147.847 393.952 146.507C393.809 145.864 393.293 145.272 392.965 145.163C391.717 144.887 390.735 146.487 391.584 147.295Z" fill="current"/>
<path fill-rule="evenodd" clip-rule="evenodd" d="M394.836 144.104C396.227 145.022 397.252 144.172 396.209 142.774C395.744 142.129 395.095 142.018 394.589 142.55C394.082 143.082 394.169 143.672 394.836 144.104Z" fill="current"/>
<path fill-rule="evenodd" clip-rule="evenodd" d="M397.174 140.854C397.442 141.819 399.953 141.674 399.899 140.71C399.932 140.336 399.575 139.691 399.122 139.26C398.273 138.452 396.786 139.674 397.174 140.854Z" fill="current"/>
<path fill-rule="evenodd" clip-rule="evenodd" d="M400.462 138.305C401.129 138.737 401.987 138.743 402.392 138.317C402.797 137.891 402.75 137.035 402.285 136.39C401.707 135.637 401.171 135.634 400.411 136.432C399.652 137.23 399.681 137.765 400.462 138.305Z" fill="current"/>
<path fill-rule="evenodd" clip-rule="evenodd" d="M403.5 135.113C404.167 135.545 405.025 135.55 405.43 135.125C405.835 134.699 405.787 133.843 405.323 133.197C404.745 132.445 404.209 132.441 403.449 133.239C402.69 134.038 402.719 134.573 403.5 135.113Z" fill="current"/>
<path fill-rule="evenodd" clip-rule="evenodd" d="M394.622 149.882C395.4 151.332 396.365 151.338 396.931 149.95C397.16 149.256 396.853 148.558 396.192 148.233C394.711 147.635 393.952 148.433 394.622 149.882Z" fill="current"/>
<path fill-rule="evenodd" clip-rule="evenodd" d="M397.359 146.099C397.431 147.384 398.923 148.196 399.683 147.398C400.088 146.973 400.103 146.277 399.65 145.846C398.688 144.93 397.356 145.083 397.359 146.099Z" fill="current"/>
<path fill-rule="evenodd" clip-rule="evenodd" d="M400.344 143.87C400.701 144.515 401.413 144.786 402.095 144.523C403.453 143.889 403.4 142.926 401.913 142.221C400.433 141.623 399.673 142.421 400.344 143.87Z" fill="current"/>
<path fill-rule="evenodd" clip-rule="evenodd" d="M402.923 140.14C403.063 141.693 404.543 142.291 405.556 141.226C406.265 140.482 406.235 139.946 405.454 139.406C404.284 138.596 402.914 139.016 402.923 140.14Z" fill="current"/>
<path fill-rule="evenodd" clip-rule="evenodd" d="M405.961 136.948C406.101 138.5 407.581 139.098 408.594 138.034C409.303 137.289 409.273 136.754 408.492 136.214C407.322 135.404 405.952 135.824 405.961 136.948Z" fill="current"/>
<path fill-rule="evenodd" clip-rule="evenodd" d="M409.305 134.453C410.083 135.903 411.048 135.909 411.614 134.521C411.843 133.826 411.536 133.129 410.875 132.804C409.395 132.206 408.635 133.004 409.305 134.453Z" fill="current"/>
<path fill-rule="evenodd" clip-rule="evenodd" d="M411.599 131.363C412.043 132.597 413.505 132.873 414.417 131.916C414.872 131.437 414.729 130.794 414.062 130.361C412.727 129.497 411.262 130.13 411.599 131.363Z" fill="current"/>
<path fill-rule="evenodd" clip-rule="evenodd" d="M418.62 131.353C418.804 132.745 419.838 133.019 420.901 131.902C421.661 131.104 420.341 129.544 419.179 129.858C418.756 129.962 418.471 130.603 418.62 131.353Z" fill="current"/>
<path fill-rule="evenodd" clip-rule="evenodd" d="M421.601 128.107C421.768 129.178 422.158 129.448 423.332 129.348C424.505 129.248 424.651 128.982 424.112 127.962C423.266 126.244 421.341 126.339 421.601 128.107Z" fill="current"/>
<path fill-rule="evenodd" clip-rule="evenodd" d="M413.116 138.383C413.682 138.922 414.319 138.819 414.763 138.126C415.6 136.793 414.48 135.93 413.19 136.832C412.57 137.256 412.55 137.844 413.116 138.383Z" fill="current"/>
<path fill-rule="evenodd" clip-rule="evenodd" d="M415.549 134.92C415.57 136.258 416.496 136.531 417.509 135.467C418.066 134.882 418.125 134.026 417.673 133.595C416.824 132.787 415.421 133.581 415.549 134.92Z" fill="current"/>
<path fill-rule="evenodd" clip-rule="evenodd" d="M427.505 128.25C427.949 129.484 429.411 129.76 430.323 128.803C430.778 128.324 430.635 127.681 429.968 127.248C428.633 126.384 427.168 127.017 427.505 128.25Z" fill="current"/>
<path fill-rule="evenodd" clip-rule="evenodd" d="M430.474 124.79C430.558 126.289 432.101 127.048 432.842 125.928C433.185 125.342 433.137 124.485 432.741 124.108C431.835 123.246 430.414 123.719 430.474 124.79Z" fill="current"/>
<path fill-rule="evenodd" clip-rule="evenodd" d="M439.898 122.707C440.256 123.352 440.968 123.624 441.65 123.36C443.008 122.726 442.955 121.763 441.468 121.058C439.988 120.46 439.228 121.258 439.898 122.707Z" fill="current"/>
<path fill-rule="evenodd" clip-rule="evenodd" d="M433.335 159.754C429.172 165.829 428.884 175.086 432.754 182.013C436.857 189.263 446.44 194.834 453.961 194.185C461.861 193.592 468.833 188.871 471.788 182.254C473.979 177.344 473.877 169.744 471.61 164.645C469.348 159.655 462.63 153.566 457.545 151.768C448.585 148.716 438.741 151.92 433.335 159.754ZM445.661 155.869C458.618 151.775 471.931 164.647 468.269 177.79C463.797 193.71 441.915 193.469 435.765 177.376C433.763 172.226 434.17 167.037 436.839 162.986C438.759 159.948 442.712 156.815 445.661 155.869Z" fill="current"/>
<path fill-rule="evenodd" clip-rule="evenodd" d="M244.401 380.845C238.507 389.532 236.453 396.904 237.032 407.29C237.558 416.712 240.058 424.059 245.057 431.047C249.705 437.498 252.818 440.461 258.931 444.352C270.156 451.485 285.049 453.289 297.193 449.029C309.653 444.664 318.912 434.821 322.852 421.84C325.159 414.202 324.422 401.942 321.198 394.108C316.928 383.86 311.172 376.761 302.56 371.302C282.836 358.819 256.436 363.098 244.401 380.845ZM256.512 375.032C270.996 364.686 293.036 366.802 306.791 379.891C314.772 387.486 318.982 396.664 319.66 407.853C320.343 419.149 317.288 427.8 309.896 435.568C302.504 443.336 294.015 446.815 282.648 446.745C271.388 446.676 262.398 443.089 254.417 435.493C238.455 420.303 236.748 395.461 250.63 380.08C251.896 378.75 254.502 376.465 256.512 375.032Z" fill="current"/>
<path fill-rule="evenodd" clip-rule="evenodd" d="M249.901 389.12C246.729 394.72 245.685 400.012 246.04 407.346C247.151 427.261 263.05 442.29 282.939 442.359C293.284 442.369 301.377 438.512 308.203 430.206C323.178 412.316 313.738 383.359 290.166 374.919C284.205 372.795 272.889 372.672 267.268 374.724C259.494 377.566 253.549 382.453 249.901 389.12ZM269.789 379.556C276.419 377.349 282.803 377.442 289.583 379.839C293.464 381.201 294.748 382.118 299.956 387.074C305.22 392.083 306.143 393.266 307.758 397.237C310.294 403.3 310.888 411.063 309.235 416.993C307.8 422.015 306.925 423.615 305.962 422.699C305.623 422.376 305.042 422.533 304.586 423.012C304.08 423.544 304.217 424.08 304.929 424.352C305.647 424.731 305.727 425.213 305.12 425.852C304.411 426.597 303.925 426.54 303.279 425.519C302.632 424.499 302.147 424.442 301.337 425.293C300.172 426.517 300.994 427.807 303.139 427.82C304.211 427.826 304.173 428.094 302.99 428.996C301.915 429.899 301.322 429.842 300.405 428.766C299.714 427.906 299.058 427.688 298.552 428.22C297.489 429.337 298.171 431 299.547 430.687C300.393 430.479 300.462 430.747 299.601 431.651C298.791 432.502 298.204 432.552 297.626 431.799C297.161 431.154 296.348 430.989 295.728 431.413C295.008 431.944 294.987 432.532 295.609 433.125C296.515 433.987 296.465 434.04 294.755 434.137C293.682 434.13 292.476 434.604 292.071 435.03C290.4 436.786 289.17 436.831 288.008 435.219C287.198 434.143 286.65 433.926 286.093 434.511C285.688 434.937 285.572 435.739 285.759 436.222C286.117 436.866 285.706 437.185 284.154 437.229C282.286 437.378 282.009 437.215 282.101 435.985C282.155 435.022 281.86 434.539 280.883 434.319C279.691 434.097 279.539 434.257 279.837 435.757C280.141 437.365 280.04 437.471 278.092 437.138C276.629 436.861 276.013 436.376 275.858 435.519C275.604 433.858 273.814 433.472 273.248 434.86C272.733 436.195 267.642 434.291 266.507 432.196C265.98 431.39 265.199 430.85 264.618 431.007C263.823 431.163 263.484 430.84 263.078 429.339C262.616 427.784 262.333 427.515 261.38 427.723C260.376 427.984 260.093 427.715 259.682 426.107C259.22 424.552 258.937 424.283 257.77 424.49C256.76 424.644 256.483 424.482 256.763 423.734C256.953 423.307 256.351 422.126 255.502 421.318C253.295 419.217 252.106 416.16 252.829 414.719C253.217 413.972 252.936 412.793 252.076 411.771C251.045 410.587 250.884 409.623 251.569 408.45C252.152 407.383 252.105 406.527 251.381 406.041C250.821 405.609 250.546 404.537 250.764 403.628C250.981 402.72 251.38 402.187 251.607 402.403C251.833 402.618 251.887 401.655 251.764 400.424C251.606 398.55 251.797 398.123 252.774 398.343C253.858 398.563 253.715 397.92 252.488 397.057C252.148 396.733 253.032 394.331 254.929 390.864C255.317 390.117 257.544 387.776 259.885 385.543C263.397 382.193 264.952 381.239 269.789 379.556Z" fill="current"/>
<path fill-rule="evenodd" clip-rule="evenodd" d="M252.536 403.693C252.608 404.978 254.1 405.79 254.86 404.992C255.265 404.566 255.28 403.87 254.827 403.439C253.865 402.524 252.533 402.676 252.536 403.693Z" fill="current"/>
<path fill-rule="evenodd" clip-rule="evenodd" d="M253.824 411.407C254.491 411.839 255.349 411.845 255.754 411.419C256.868 410.249 255.024 408.899 253.734 409.801C252.856 410.384 252.88 410.813 253.824 411.407Z" fill="current"/>
<path fill-rule="evenodd" clip-rule="evenodd" d="M253.247 416.434C253.387 417.987 254.867 418.585 255.88 417.521C256.589 416.776 256.559 416.241 255.779 415.701C254.608 414.891 253.238 415.31 253.247 416.434Z" fill="current"/>
<path fill-rule="evenodd" clip-rule="evenodd" d="M256.592 413.94C257.369 415.389 258.334 415.395 258.9 414.007C259.129 413.313 258.822 412.616 258.161 412.29C256.681 411.692 255.921 412.491 256.592 413.94Z" fill="current"/>
<path fill-rule="evenodd" clip-rule="evenodd" d="M256.643 419.666C256.726 421.165 258.27 421.924 259.011 420.805C259.354 420.218 259.306 419.362 258.91 418.984C258.004 418.123 256.583 418.595 256.643 419.666Z" fill="current"/>
<path fill-rule="evenodd" clip-rule="evenodd" d="M259.737 416.528C259.758 417.866 261.251 418.678 262.01 417.88C262.415 417.454 262.26 416.597 261.638 416.004C260.506 414.927 259.609 415.189 259.737 416.528Z" fill="current"/>
<path fill-rule="evenodd" clip-rule="evenodd" d="M260.17 423.327C260.626 424.775 262.866 424.575 262.782 423.076C262.711 421.791 261.117 421.085 260.358 421.883C260.104 422.149 260.033 422.791 260.17 423.327Z" fill="current"/>
<path fill-rule="evenodd" clip-rule="evenodd" d="M263.202 420.028C263.533 421.154 265.216 421.539 265.427 420.523C265.582 419.454 264.054 417.999 263.446 418.638C263.142 418.957 263.014 419.545 263.202 420.028Z" fill="current"/>
<path fill-rule="evenodd" clip-rule="evenodd" d="M263.805 426.989C264.472 427.421 265.33 427.426 265.735 427C266.849 425.83 265.005 424.481 263.715 425.382C262.836 425.966 262.86 426.394 263.805 426.989Z" fill="current"/>
<path fill-rule="evenodd" clip-rule="evenodd" d="M266.842 423.796C268.511 424.877 269.845 423.815 268.487 422.522C267.807 421.876 266.994 421.71 266.488 422.242C266.032 422.721 266.175 423.364 266.842 423.796Z" fill="current"/>
<path fill-rule="evenodd" clip-rule="evenodd" d="M266.93 430.165C267.779 430.973 269.73 430.397 269.727 429.38C269.592 427.934 268.112 427.336 267.15 428.347C266.593 428.932 266.477 429.734 266.93 430.165Z" fill="current"/>
<path fill-rule="evenodd" clip-rule="evenodd" d="M269.968 426.973C270.42 427.404 271.132 427.676 271.555 427.572C272.509 427.363 272.207 424.846 271.242 424.84C269.955 424.832 269.175 426.219 269.968 426.973Z" fill="current"/>
<path fill-rule="evenodd" clip-rule="evenodd" d="M269.661 432.055C269.802 433.608 271.282 434.206 272.295 433.142C273.004 432.397 272.974 431.862 272.193 431.322C271.023 430.512 269.652 430.931 269.661 432.055Z" fill="current"/>
<path fill-rule="evenodd" clip-rule="evenodd" d="M272.699 428.863C272.783 430.362 274.326 431.121 275.068 430.001C275.41 429.415 275.362 428.558 274.966 428.181C274.06 427.319 272.64 427.792 272.699 428.863Z" fill="current"/>
<path fill-rule="evenodd" clip-rule="evenodd" d="M276.534 433.222C277.383 434.029 277.919 434.033 278.464 433.233C278.806 432.647 278.759 431.79 278.306 431.359C277.853 430.928 276.995 430.923 276.426 431.294C275.655 431.878 275.684 432.414 276.534 433.222Z" fill="current"/>
<path fill-rule="evenodd" clip-rule="evenodd" d="M279.571 430.029C280.194 430.622 281.058 430.734 281.463 430.308C281.868 429.883 281.713 429.026 281.09 428.433C280.468 427.841 279.604 427.728 279.199 428.154C278.794 428.579 278.949 429.437 279.571 430.029Z" fill="current"/>
<path fill-rule="evenodd" clip-rule="evenodd" d="M282.968 433.261C283.59 433.854 284.454 433.966 284.859 433.54C285.264 433.115 285.109 432.258 284.487 431.665C283.864 431.072 283 430.96 282.595 431.386C282.19 431.811 282.345 432.669 282.968 433.261Z" fill="current"/>
<path fill-rule="evenodd" clip-rule="evenodd" d="M285.624 428.996C285.591 429.371 285.949 430.015 286.402 430.446C287.251 431.254 288.737 430.032 288.35 428.852C288.081 427.888 285.57 428.033 285.624 428.996Z" fill="current"/>
<path fill-rule="evenodd" clip-rule="evenodd" d="M289.333 433.033C290.001 433.465 290.858 433.47 291.264 433.045C292.377 431.874 290.533 430.525 289.244 431.427C288.365 432.01 288.389 432.438 289.333 433.033Z" fill="current"/>
<path fill-rule="evenodd" clip-rule="evenodd" d="M292.44 430.109C293.062 430.701 293.875 430.867 294.23 430.494C295.192 429.483 295.031 428.519 293.771 428.03C292.177 427.324 291.138 428.87 292.44 430.109Z" fill="current"/>
<path fill-rule="evenodd" clip-rule="evenodd" d="M434.483 217.827C428.641 232.24 440.057 248.58 456.035 248.678C463.006 248.721 467.605 246.609 472.12 241.071C476.781 235.266 477.858 227.673 474.905 219.895C473.448 215.872 467.022 209.25 462.682 207.35C458.342 205.451 451.19 205.032 446.82 206.45C442.709 207.709 436.136 213.823 434.483 217.827ZM446.013 212.171C457.615 205.874 472.96 216.726 471.353 230.202C470.945 233.464 470.317 234.691 467.449 238.045C463.068 243.102 458.76 244.681 452.582 243.466C445.32 242.029 440.452 237.397 438.658 230.215C436.796 222.764 439.669 215.664 446.013 212.171Z" fill="current"/>
<path fill-rule="evenodd" clip-rule="evenodd" d="M486.089 163.825C484.341 168.042 484.372 174.357 486.204 179.346C488.287 184.978 494.978 191.548 500.215 193.186C505.83 194.879 509.476 194.902 514.578 193.167C529.841 188.124 533.106 168.824 520.728 157.349C511.57 148.837 498.544 148.81 490.658 157.324C488.835 159.24 486.75 162.224 486.089 163.825ZM502.942 156.544C508.515 155.561 517.455 159.202 518.244 162.792C518.885 165.633 516.184 166.205 512.892 163.883C509.594 161.455 503.83 160.937 501.194 162.687C500.265 163.324 498.817 164.278 497.989 164.808C495.562 166.452 492.371 164.024 493.792 161.625C494.965 159.598 499.382 157.11 502.942 156.544Z" fill="current"/>
<path fill-rule="evenodd" clip-rule="evenodd" d="M339.783 329.468C337.624 337.856 345.007 347.214 354.02 347.376C362.605 347.536 368.624 341.098 367.617 332.636C366.737 325.513 361.732 320.345 354.702 319.231C348.592 318.283 341.361 323.162 339.783 329.468ZM350.303 323.967C350.991 323.81 352.751 323.661 354.309 323.724C356.567 323.845 357.669 324.387 360.217 326.811C363.047 329.504 363.291 330.041 363.381 333.573C363.351 336.891 363.027 337.799 360.85 340.087C358.673 342.375 357.731 342.797 354.628 342.885C349.707 343.069 345.628 340.1 344.299 335.489C343.775 333.774 343.375 332.38 343.426 332.326C343.477 332.273 344.043 330.885 344.76 329.338C345.892 326.562 347.726 324.861 350.303 323.967Z" fill="current"/>
<path fill-rule="evenodd" clip-rule="evenodd" d="M397.005 268.544C395.898 271.748 396.762 277.64 398.821 280.917C405.286 291.125 420.79 289.455 424.125 278.13C427.275 267.339 416.333 256.621 405.649 260.141C402.119 261.243 398.152 265.072 397.005 268.544ZM406.802 264.483C410.478 263.114 414.008 263.939 417.064 266.848C424.649 274.066 417.704 286.011 407.772 282.845C402.044 281.044 399.145 274.23 401.685 268.84C403.082 266.012 403.234 265.853 406.802 264.483Z" fill="current"/>
<path fill-rule="evenodd" clip-rule="evenodd" d="M490.055 216.671C485.972 225.155 487.495 234.208 494.008 241.42C500.237 248.362 509.382 250.88 517.907 248.042C526.065 245.363 531.846 236.569 531.35 227.682C530.866 219.009 524.264 210.192 515.897 207.197C510.97 205.347 503.538 205.676 499.21 207.843C495.767 209.535 491.496 213.683 490.055 216.671ZM503.69 211.296C506.374 210.403 509.472 210.208 511.962 210.651C515.588 211.262 516.311 211.748 520.613 215.842C524.972 219.99 525.436 220.635 526.283 224.279C527.496 229.692 526.001 235.569 522.564 239.294C512.039 250.468 493.001 242.591 492.552 226.854C492.304 219.521 496.631 213.5 503.69 211.296Z" fill="current"/>
<path fill-rule="evenodd" clip-rule="evenodd" d="M361.972 408.274L371.613 417.752L363.074 427.065L354.428 436.377L367.164 448.497L379.899 460.617L387.95 452.157C392.405 447.475 396.524 443.487 397.15 443.17C398.142 442.694 399.658 443.934 407.866 451.745L417.431 460.848L428.862 448.61L440.186 436.371L430.817 426.947L421.447 417.524L429.688 408.638L437.929 399.751L425.345 387.472L412.654 375.192L404.047 384.237L395.44 393.281L385.546 384.069L375.658 374.964L363.995 386.88L352.338 398.903L361.972 408.274ZM382.395 391.007C387.15 395.532 388.526 397.146 388.485 398.323C388.336 401.426 386.54 400.933 381.464 396.406L376.614 392.095L371.533 397.094C367.521 401.083 366.282 401.932 365.293 401.498C362.603 400.357 363.467 398.543 369.947 391.733L376.226 385.136L382.395 391.007ZM419.704 392.04C427.006 398.988 428.016 400.761 425.401 401.922C424.46 402.344 423.289 401.534 418.931 397.386L413.61 392.323L410.774 395.303C407.787 398.442 405.336 399.657 404.147 398.526C402.506 396.964 403.319 395.203 407.977 390.308L412.686 385.36L419.704 392.04Z" fill="current"/>
<path fill-rule="evenodd" clip-rule="evenodd" d="M457.995 289.577C454.32 296.725 453.019 303.193 453.547 311.705C454.276 324.768 458.474 333.731 467.87 342.673C477.266 351.614 486.426 355.364 499.509 355.444C512.005 355.575 521.125 351.885 529.328 343.266C537.783 334.38 541.169 324.929 540.464 312.294C539.771 299.874 535.26 290.106 526.147 281.434C512.506 268.452 492.905 264.907 476.33 272.35C470.158 275.095 461.041 283.655 457.995 289.577ZM476.131 277.433C486.728 271.398 500.55 271.269 512.826 277.071C517.455 279.347 518.739 280.265 524.084 285.756C531.359 293.186 533.867 297.804 535.531 306.484C540.317 330.81 523.669 351.365 499.219 351.215C466.62 351.014 446.566 315.301 463.985 288.383C466.349 284.651 471.353 280.187 476.131 277.433Z" fill="current"/>
<path fill-rule="evenodd" clip-rule="evenodd" d="M465.49 295.189C458.885 309.383 462.116 325.03 473.845 336.395C485.228 347.329 501.292 349.943 514.472 343.12C518.327 341.111 519.965 339.729 523.789 335.257C527.872 330.627 528.754 329.134 530.213 324.54C532.023 318.557 532.052 309.46 530.296 303.937C528.529 298.199 524.713 292.236 520.071 287.819C508.468 276.776 491.873 274.266 478.452 281.568C474.603 283.685 467.262 291.4 465.49 295.189ZM480.588 286.237C490.238 280.517 502.386 281.127 512.842 287.935C523.525 294.958 529.299 310.085 525.78 321.944C524.416 326.324 522.766 329.418 522.317 328.077C522.179 327.541 521.795 327.378 521.542 327.644C520.529 328.708 520.509 329.297 521.34 329.784C522.284 330.378 519.219 334.052 515.863 336.332C514.415 337.287 513.879 337.283 513.182 336.316C512.178 334.651 510.444 336.245 511.29 337.963C511.836 339.09 511.785 339.144 510.272 338.92C509.351 338.754 508.461 339.123 508.226 339.71C507.615 341.259 505.64 341.407 504.175 340.114C503.495 339.467 502.512 339.14 502.095 339.351C501.571 339.562 501.607 340.205 502.173 340.743C503.022 341.551 502.814 341.657 500.568 341.75C498.322 341.844 498.045 341.681 498.131 340.344C498.274 339.06 498.16 338.953 496.823 338.998C495.599 339.151 495.453 339.418 495.84 340.597C496.284 341.831 496.076 341.937 494.178 341.55C492.665 341.327 492.105 340.895 492.176 340.254C492.432 339.078 490.687 338.532 489.725 339.543C488.813 340.501 485.977 339.627 483.511 337.685C482.447 336.876 481.056 335.957 480.344 335.685C479.626 335.306 479.111 334.714 479.188 334.18C479.367 333.539 478.914 333.108 477.717 332.779C476.462 332.397 476.004 331.859 475.837 330.788C475.67 329.716 475.274 329.339 474.416 329.334C473.772 329.33 473.042 328.737 472.503 327.717C472.134 326.858 471.136 325.3 470.432 324.225C469.214 322.559 469.259 322.398 470.772 322.622C472.556 322.9 473.33 321.407 471.972 320.114C471.519 319.683 470.673 319.892 470.066 320.53L468.901 321.754L468.996 319.614C469.044 318.544 468.689 316.99 468.168 316.291C467.646 315.592 467.631 314.361 468.17 313.454C468.709 312.548 468.757 311.478 468.304 311.047C467.053 309.755 466.749 308.148 467.609 307.243C468.065 306.764 468.309 305.374 468.13 304.089C467.928 302.375 468.023 302.162 468.556 303.075C469.083 303.881 469.575 304.044 470.081 303.512C470.638 302.927 470.4 302.497 469.405 301.956C468.63 301.523 468.121 301.038 468.374 300.772C468.52 300.506 469.547 298.746 470.462 296.878C472.835 292.344 475.924 289.099 480.588 286.237Z" fill="current"/>
<path fill-rule="evenodd" clip-rule="evenodd" d="M469.57 309.717C470.306 310.417 470.955 310.528 471.19 309.941C471.381 309.514 471.232 308.764 470.836 308.387C470.439 308.01 469.683 307.898 469.209 308.056C468.691 308.374 468.834 309.017 469.57 309.717Z" fill="current"/>
<path fill-rule="evenodd" clip-rule="evenodd" d="M469.588 315.818C470.041 316.249 470.753 316.521 471.126 316.47C472.237 316.209 472.275 314.015 471.241 313.741C469.829 313.411 468.626 314.902 469.588 315.818Z" fill="current"/>
<path fill-rule="evenodd" clip-rule="evenodd" d="M472.985 319.05C473.437 319.481 474.149 319.753 474.572 319.648C475.526 319.44 475.224 316.923 474.259 316.917C472.972 316.909 472.192 318.296 472.985 319.05Z" fill="current"/>
<path fill-rule="evenodd" clip-rule="evenodd" d="M472.678 324.132C472.762 325.631 474.305 326.39 475.047 325.27C475.389 324.684 475.341 323.827 474.945 323.45C474.039 322.588 472.619 323.061 472.678 324.132Z" fill="current"/>
<path fill-rule="evenodd" clip-rule="evenodd" d="M475.722 321.047C475.794 322.332 477.286 323.144 478.046 322.346C478.451 321.92 478.466 321.224 478.013 320.793C477.051 319.878 475.719 320.03 475.722 321.047Z" fill="current"/>
<path fill-rule="evenodd" clip-rule="evenodd" d="M476.206 327.793C476.662 329.241 478.902 329.041 478.818 327.542C478.747 326.257 477.153 325.551 476.393 326.349C476.14 326.615 476.069 327.257 476.206 327.793Z" fill="current"/>
<path fill-rule="evenodd" clip-rule="evenodd" d="M479.169 324.226C479.19 325.564 480.683 326.376 481.442 325.578C481.847 325.152 481.692 324.295 481.07 323.702C479.937 322.625 479.041 322.887 479.169 324.226Z" fill="current"/>
<path fill-rule="evenodd" clip-rule="evenodd" d="M479.471 330.596C479.554 332.095 481.097 332.854 481.839 331.734C482.181 331.148 482.134 330.291 481.737 329.914C480.832 329.052 479.411 329.525 479.471 330.596Z" fill="current"/>
<path fill-rule="evenodd" clip-rule="evenodd" d="M482.816 328.101C483.593 329.551 484.558 329.557 485.124 328.169C485.353 327.475 485.047 326.777 484.385 326.452C482.905 325.854 482.145 326.652 482.816 328.101Z" fill="current"/>
<path fill-rule="evenodd" clip-rule="evenodd" d="M482.998 334.257C483.454 335.705 485.694 335.504 485.61 334.005C485.539 332.721 483.945 332.015 483.186 332.813C482.932 333.079 482.861 333.721 482.998 334.257Z" fill="current"/>
<path fill-rule="evenodd" clip-rule="evenodd" d="M486.343 331.762C487.192 332.57 487.728 332.574 488.273 331.774C488.616 331.188 488.568 330.331 488.115 329.9C487.662 329.469 486.804 329.464 486.235 329.835C485.464 330.419 485.494 330.954 486.343 331.762Z" fill="current"/>
<path fill-rule="evenodd" clip-rule="evenodd" d="M486.394 337.489C486.85 338.937 489.09 338.736 489.007 337.237C488.935 335.952 487.341 335.247 486.582 336.045C486.329 336.311 486.257 336.953 486.394 337.489Z" fill="current"/>
<path fill-rule="evenodd" clip-rule="evenodd" d="M489.671 334.726C491.062 335.644 492.756 334.317 491.511 333.132C491.058 332.701 490.2 332.696 489.581 333.12C488.702 333.703 488.726 334.132 489.671 334.726Z" fill="current"/>
<path fill-rule="evenodd" clip-rule="evenodd" d="M492.777 331.802C493.06 332.071 493.596 332.075 493.9 331.755C494.153 331.489 493.971 331.114 493.536 331.004C493.045 330.84 492.565 330.891 492.413 331.05C492.312 331.157 492.437 331.479 492.777 331.802Z" fill="current"/>
<path fill-rule="evenodd" clip-rule="evenodd" d="M492.852 337.957C493.418 338.495 494.056 338.392 494.5 337.699C495.336 336.366 494.216 335.503 492.927 336.405C492.307 336.83 492.286 337.418 492.852 337.957Z" fill="current"/>
<path fill-rule="evenodd" clip-rule="evenodd" d="M495.89 334.765C496.456 335.303 497.093 335.2 497.537 334.507C498.374 333.174 497.254 332.311 495.964 333.213C495.345 333.637 495.324 334.226 495.89 334.765Z" fill="current"/>
<path fill-rule="evenodd" clip-rule="evenodd" d="M498.622 336.654C498.589 337.029 498.947 337.673 499.399 338.104C500.248 338.912 501.735 337.69 501.347 336.51C501.079 335.545 498.568 335.691 498.622 336.654Z" fill="current"/>
<path fill-rule="evenodd" clip-rule="evenodd" d="M501.663 334.479C501.773 335.496 503.123 335.665 503.983 334.761C504.388 334.335 504.296 333.639 503.843 333.208C502.994 332.4 501.591 333.194 501.663 334.479Z" fill="current"/>
<path fill-rule="evenodd" clip-rule="evenodd" d="M504.562 337.44C505.006 338.674 506.468 338.95 507.379 337.993C507.835 337.514 507.692 336.871 507.025 336.439C505.69 335.574 504.225 336.207 504.562 337.44Z" fill="current"/>
<path fill-rule="evenodd" clip-rule="evenodd" d="M507.662 334.409C508.118 335.856 510.358 335.656 510.274 334.157C510.203 332.872 508.609 332.167 507.849 332.965C507.596 333.231 507.525 333.873 507.662 334.409Z" fill="current"/>
<path fill-rule="evenodd" clip-rule="evenodd" d="M514.334 334.878C515.002 335.31 515.86 335.316 516.265 334.89C517.378 333.719 515.535 332.37 514.245 333.272C513.366 333.855 513.39 334.284 514.334 334.878Z" fill="current"/>
<path fill-rule="evenodd" clip-rule="evenodd" d="M516.497 331.359C516.607 332.377 518.624 332.978 519.383 332.18C519.788 331.754 519.582 330.95 518.96 330.358C517.884 329.334 516.47 329.914 516.497 331.359Z" fill="current"/>
<path fill-rule="evenodd" clip-rule="evenodd" d="M140.189 345.952C140.43 347.398 141.106 348.954 141.729 349.547C143.144 350.894 147.806 350.869 149.122 349.485C150.591 347.943 150.176 343.391 148.421 341.721C144.969 338.435 139.396 341.344 140.189 345.952Z" fill="current"/>
<path fill-rule="evenodd" clip-rule="evenodd" d="M428.315 59.1649C430.517 63.0852 430.529 63.2993 428.84 66.6605C427.869 68.4741 427.068 70.4493 427.092 70.8775C427.173 71.3597 428.96 70.7285 431.191 69.4043L435.191 67.1278L439.391 69.4013C441.715 70.7001 443.63 71.4076 443.663 71.0332C443.752 70.7126 442.781 68.673 441.488 66.6314L439.242 62.8714L441.368 58.7102C442.529 56.4696 443.071 54.6534 442.586 54.5969C442.157 54.5942 440.274 55.4389 438.404 56.4977C435.238 58.3513 434.916 58.3493 430.897 56.4514C428.529 55.313 426.506 54.6048 426.354 54.7644C426.152 54.9772 427.067 56.963 428.315 59.1649Z" fill="current"/>
<path fill-rule="evenodd" clip-rule="evenodd" d="M145.955 432.042C148.484 436.072 148.433 436.125 146.676 439.218C143.808 444.498 144.053 445.035 148.571 442.441L152.729 440.112L156.822 442.384C159.146 443.683 161.175 444.498 161.377 444.286C161.58 444.073 160.665 442.087 159.303 439.777L156.881 435.749L159.007 431.588C161.375 426.946 160.77 426.675 155.695 429.855C152.794 431.656 152.636 431.709 148.436 429.435C146.118 428.244 144.033 427.374 143.83 427.587C143.628 427.8 144.599 429.84 145.955 432.042Z" fill="current"/>
<path fill-rule="evenodd" clip-rule="evenodd" d="M498.372 83.251C497.589 85.5473 498.471 89.8341 500.113 91.3962C501.924 93.1199 505.957 94.3222 507.858 93.7987C508.698 93.4828 510.145 92.5285 511.006 91.624C513.132 89.3894 513.549 87.2513 512.417 84.2474C510.027 77.9178 500.555 77.2171 498.372 83.251ZM506.537 84.5323C508.155 85.6661 508.185 88.128 506.561 88.8137C505.412 89.3418 502.9 87.5602 502.823 86.1683C502.739 84.6693 505.196 83.5607 506.537 84.5323Z" fill="current"/>
</g>
<defs>
<clipPath id="clip0">
<rect width="839.488" height="761.054" fill="white" transform="translate(-211 288.13) rotate(-46.4195)"/>
</clipPath>
</defs>
</svg>
