<svg width="408" height="371" viewBox="0 0 408 371" fill="current" xmlns="http://www.w3.org/2000/svg">
<path fill-rule="evenodd" clip-rule="evenodd" d="M45.1171 155.401C44.1886 156.44 43.0152 158.687 42.4944 160.37C41.9737 162.053 40.7632 164.925 39.7627 166.761C38.6943 168.49 37.8426 175.344 37.8825 181.784C37.9012 200.715 49.0459 241.767 63.672 277.155C71.7646 296.535 91.6349 329.954 100.9 339.571C109.79 348.824 118.971 354.435 127.45 355.98C135.759 357.483 141.959 356.111 149.886 351.09C158.945 345.352 163.114 338.952 165.425 327.115C167.806 314.932 167.155 307.527 161.543 284.32C159.223 274.964 157.284 264.616 157.059 261.3L156.711 255.056L162.322 255.261C175.22 255.811 188.982 246.793 193.793 234.574C195.8 229.545 197.107 227.965 202.255 224.704C205.652 222.552 208.703 221.221 209.111 221.865C209.519 222.508 214.629 219.873 222.145 215.112C229.66 210.352 234.227 206.858 233.819 206.214C233.411 205.57 235.919 203.381 239.316 201.229C244.463 197.968 246.45 197.461 251.856 197.796C264.958 198.668 278.992 190.079 284.109 178.117C285.32 175.246 286.973 172.846 287.795 172.776C290.292 172.848 299.981 179.49 314.337 190.994C336.023 208.379 347.396 213.353 362.185 212.104C376.323 210.967 387.999 201.616 391.1 188.977C394.9 173.34 389.293 156.746 371.41 130.336C353.528 103.927 333.364 82.5702 301.146 55.6191C286.214 42.9767 280.312 38.8972 271.332 34.5124C264.946 31.4911 258.557 29.3743 256.469 29.4941C254.278 29.6791 250.993 29.5042 248.908 29.1717C245.796 28.5867 243.362 29.5269 234.408 34.7479C223.738 40.9049 215.768 47.9078 217.06 49.9464C217.467 50.5902 217.121 51.4106 216.298 51.9323C215.577 52.3888 214.336 54.5282 213.642 56.6214C212.671 59.6423 210.884 61.3757 205.221 64.9622C201.206 67.5054 197.263 69.2513 196.615 68.9105C195.795 68.5275 178.434 78.9232 148.064 98.1601C117.694 117.397 100.877 128.651 100.873 129.556C100.904 130.288 97.6405 133.107 93.6256 135.65C87.9634 139.236 85.6326 140.111 82.4862 139.699C80.2973 139.432 77.8326 139.64 77.112 140.096C76.2884 140.618 75.3988 140.58 74.9911 139.936C73.8357 138.112 65.334 141.543 56.0337 147.584C51.0572 150.887 46.0457 154.362 45.1171 155.401ZM83.5886 145.766C88.2072 145.998 90.3321 145.253 96.2002 141.536L103.407 136.972L117.951 159.933C132.427 182.787 132.563 183.001 136.937 184.441L141.31 185.88L185.578 157.84L229.846 129.799L230.891 125.529L231.937 121.258L217.053 97.7605L202.237 74.3701L209.443 69.8054C215.311 66.0884 216.892 64.4854 218.657 60.2107C220.629 55.3533 221.487 54.6591 234.87 46.1818C254.019 34.0527 254.978 33.7456 263.825 37.4635C274.994 42.1156 275.369 42.4796 269.723 42.4477C262.024 42.3631 254.623 44.3443 248.14 48.0003C244.092 50.2636 242.276 50.8126 242.041 49.7586C241.571 47.6506 237.399 46.9856 236.57 48.8642C236.121 49.7498 236.56 51.1257 237.548 52.0031C238.979 53.3516 238.425 54.7548 235.294 58.6928C233.023 61.4844 230.129 66.0241 228.918 68.8956L226.534 74.0139L225.039 71.6534C222.932 68.3273 218.215 67.2562 214.817 69.4081C210.391 72.2121 210.375 75.8306 214.52 82.3756C217.511 87.0966 218.806 88.2306 221.372 88.4096L224.656 88.5844L225.925 95.5984C227.493 104.678 234.111 117.175 240.384 122.523L245.019 126.653L241.216 127.709C225.524 132.086 215.424 148.707 217.465 166.959C218.419 175.526 225.52 186.964 232.687 191.446L237.771 194.69L217.387 207.602L196.9 220.578L195.868 214.166C191.636 188.582 159.528 175.242 139.919 190.971C137.24 193.119 134.492 195.611 133.837 196.627C132.701 198.249 132.361 197.713 130.437 191.715C127.635 182.965 120.934 173.98 112.577 167.847L105.961 162.867L107.408 160.597C109.475 157.484 103.434 146.125 99.1616 145.073C92.9058 143.623 87.9443 151.276 91.4784 156.856C92.4978 158.465 91.1615 158.86 83.2216 159.079C73.8774 159.585 73.5005 159.673 62.7939 166.455C52.6021 172.911 51.6056 173.843 47.6735 180.844C45.3286 184.885 43.4695 187.416 43.4736 186.511C43.2607 180.482 43.5377 172.037 44.1264 170.462C45.168 167.096 47.5378 165.144 63.1179 155.125C77.4627 145.888 78.3542 145.473 83.5886 145.766ZM81.3135 164.948C96.1039 163.247 109.695 169.673 119.082 182.67C126.325 192.967 128.542 202.387 126.404 213.815C124.056 226.277 119.648 232.527 109.112 239.351C98.8174 245.872 91.8989 247.247 80.4458 244.88C55.1119 239.729 39.9141 209.814 51.1706 187.048C57.3176 174.434 68.1662 166.51 81.3135 164.948ZM101.139 154.344C103.479 159.177 101.179 160.784 98.3249 156.277C97.1015 154.346 96.1191 152.112 96.259 151.422C96.6788 149.352 99.5803 150.972 101.139 154.344ZM221.795 77.9182C223.426 80.4933 223.694 81.8271 222.734 82.1342C220.85 82.5758 217.615 79.0624 216.943 76.1802C216.274 72.8457 219.28 73.9483 221.795 77.9182ZM266.375 48.7776C299.376 45.765 322.237 83.9053 304.454 112.309C299.422 120.307 286.177 128.547 276.763 129.398C268.067 130.246 257.745 127.613 250.169 122.94C241.843 117.539 232.532 102.84 231.343 93.2194C228.399 70.1263 243.61 50.8695 266.375 48.7776ZM71.3634 248.077C87.2092 255.33 107.93 251.376 119.688 238.967C122.541 235.956 125.465 232.601 126.325 231.455C127.6 229.595 127.907 229.852 129.701 234.278C132.444 240.659 140.381 248.862 146.699 251.776C151.309 253.817 151.649 254.353 151.33 256.811C150.697 260.82 153.233 275.301 157.001 289.903C158.921 296.805 159.949 304.122 159.564 306.02C158.066 312.081 150.745 319.425 140.007 325.474C126.01 333.438 115.33 334.34 101.667 328.712L95.9627 326.311L86.3179 309.718C74.8051 289.948 64.2678 266.253 56.6051 242.541L54.916 237.597L60.2022 241.616C63.1017 243.688 68.1531 246.653 71.3634 248.077ZM334.136 93.8084C350.792 111.222 360.185 122.863 369.939 138.034L378.062 150.629L377.379 157.978C376.844 162.827 375.008 167.899 371.871 173.194C367.457 180.801 366.701 181.43 355.377 188.603C345.082 195.124 342.819 196.106 337.651 196.373C331.01 196.821 328.654 195.607 316.552 185.382C306.29 176.697 296.943 170.139 291.82 167.972C288.097 166.421 288.132 166.248 287.138 158.759C286.413 152.603 285.296 149.702 281.286 143.372C277.209 136.934 276.667 135.623 278.345 135.312C283.036 134.746 292.701 131.331 296.098 129.179C302.069 125.396 309.672 116.22 312.886 109.223C316.412 101.126 317.492 89.1665 315.442 80.6925L313.965 74.2613L317.818 77.3835C319.897 79.0729 327.188 86.4828 334.136 93.8084ZM161.002 190.095C178.385 190.21 191.938 205.229 190.798 223.241C189.369 244.443 165.635 256.62 147.513 245.547C133.078 236.649 127.858 217.705 136.2 204.001C141.439 195.42 151.079 189.915 161.002 190.095ZM248.825 132.662C273.339 129.913 290.556 159.601 276.571 180.336C273.506 184.834 264.102 190.941 258.691 191.963C248.519 193.895 236.632 189.248 229.825 180.78C214.68 162.108 225.407 135.317 248.825 132.662Z" fill="current"/>
<path fill-rule="evenodd" clip-rule="evenodd" d="M220.434 60.7389C220.701 62.0727 221.723 63.2298 222.577 63.4402C224.97 64.0294 227.004 60.6362 225.233 58.7512C223.19 56.4369 219.83 57.964 220.434 60.7389Z" fill="current"/>
<path fill-rule="evenodd" clip-rule="evenodd" d="M228.396 55.5452C228.596 56.7717 229.617 57.9288 230.642 58.1814C233.206 58.8126 235.24 55.4194 233.469 53.5343C231.494 51.3274 227.792 52.7703 228.396 55.5452Z" fill="current"/>
<path fill-rule="evenodd" clip-rule="evenodd" d="M176.654 171.762C176.752 172.601 177.64 173.091 178.77 172.826C181.27 172.446 181.859 170.87 179.81 169.913C178.035 168.932 176.594 169.845 176.654 171.762Z" fill="current"/>
<path fill-rule="evenodd" clip-rule="evenodd" d="M182.655 168.712C183.199 169.57 184.396 169.865 185.219 169.343C186.043 168.821 186.288 167.614 185.744 166.755C185.2 165.897 184.004 165.602 183.18 166.124C182.357 166.646 182.112 167.853 182.655 168.712Z" fill="current"/>
<path fill-rule="evenodd" clip-rule="evenodd" d="M187.912 164.029C187.457 166.272 188.822 167.061 190.984 165.691C192.117 164.974 192.6 163.916 191.919 163.295C190.453 162.119 188.227 162.476 187.912 164.029Z" fill="current"/>
<path fill-rule="evenodd" clip-rule="evenodd" d="M193.98 161.539C194.523 162.397 195.72 162.691 196.543 162.17C197.367 161.648 197.612 160.441 197.068 159.582C196.525 158.724 195.328 158.429 194.505 158.951C193.681 159.473 193.436 160.68 193.98 161.539Z" fill="current"/>
<path fill-rule="evenodd" clip-rule="evenodd" d="M199.236 156.856C198.781 159.098 200.147 159.887 202.309 158.518C203.441 157.801 203.925 156.743 203.243 156.122C201.777 154.946 199.551 155.303 199.236 156.856Z" fill="current"/>
<path fill-rule="evenodd" clip-rule="evenodd" d="M182.463 173.645C181.975 175.608 183.202 176.634 184.849 175.591C185.673 175.069 185.918 173.862 185.374 173.003C184.287 171.287 182.779 171.64 182.463 173.645Z" fill="current"/>
<path fill-rule="evenodd" clip-rule="evenodd" d="M187.643 170.664C187.674 171.396 188.697 172.101 189.826 172.288C192.356 172.64 192.984 169.987 190.696 168.88C189.057 168.115 187.548 168.92 187.643 170.664Z" fill="current"/>
<path fill-rule="evenodd" clip-rule="evenodd" d="M193.785 166.924C193.845 168.841 196.371 170.097 197.131 168.563C197.823 166.922 195.988 164.025 194.752 164.808C194.135 165.199 193.686 166.085 193.785 166.924Z" fill="current"/>
<path fill-rule="evenodd" clip-rule="evenodd" d="M198.967 163.491C198.998 164.223 200.022 164.928 201.15 165.115C203.681 165.467 204.308 162.814 202.021 161.707C200.382 160.941 198.872 161.747 198.967 163.491Z" fill="current"/>
<path fill-rule="evenodd" clip-rule="evenodd" d="M188.267 176.433C188.263 177.337 189.046 178.345 190.072 178.598C191.097 178.85 191.715 178.459 191.686 177.274C191.69 176.37 190.907 175.362 189.882 175.11C188.856 174.857 188.239 175.248 188.267 176.433Z" fill="current"/>
<path fill-rule="evenodd" clip-rule="evenodd" d="M193.38 173.345C193.506 175.821 197.165 176.36 197.655 173.945C198.075 171.875 195.824 170.143 194.279 171.121C193.765 171.447 193.384 172.44 193.38 173.345Z" fill="current"/>
<path fill-rule="evenodd" clip-rule="evenodd" d="M199.592 169.26C199.588 170.164 200.37 171.172 201.396 171.425C202.421 171.677 203.039 171.286 203.01 170.101C203.014 169.197 202.231 168.189 201.206 167.936C200.18 167.684 199.563 168.075 199.592 169.26Z" fill="current"/>
<path fill-rule="evenodd" clip-rule="evenodd" d="M199.02 190.219C200.462 196.823 209.454 198.494 212.081 192.621C214.5 187.33 209.734 181.628 204.593 183.532C199.828 185.347 198.315 187.057 199.02 190.219Z" fill="current"/>
<path fill-rule="evenodd" clip-rule="evenodd" d="M198.382 210.619C198.51 212.643 200.73 213.643 202.583 212.469C203.406 211.947 203.412 210.59 202.665 209.41C201.237 207.157 198.291 207.971 198.382 210.619Z" fill="current"/>
<path fill-rule="evenodd" clip-rule="evenodd" d="M206.618 205.403C206.746 207.426 208.965 208.426 210.819 207.252C211.642 206.73 211.648 205.373 210.901 204.193C209.473 201.94 206.527 202.754 206.618 205.403Z" fill="current"/>
<path fill-rule="evenodd" clip-rule="evenodd" d="M64.5659 175.857C64.4919 177.107 64.9307 178.483 65.5793 178.823C66.3309 179.099 65.7092 180.395 64.301 181.588C61.6223 183.735 61.6903 183.843 66.4787 192.086L71.2671 200.328L77.5599 201.153C81.0481 201.65 84.3674 201.652 84.8821 201.326C85.4998 200.935 86.7802 197.719 87.6178 194.031L89.392 187.494L84.2578 180.072L79.1235 172.65L75.6252 174.415C73.0186 175.765 72.0611 175.62 71.6573 174.071C70.8867 170.35 64.9607 171.698 64.5659 175.857Z" fill="current"/>
<path fill-rule="evenodd" clip-rule="evenodd" d="M56.8592 216.07C58.4224 218.538 58.4864 219.55 57.115 220.117C54.6813 221.058 54.7312 225.236 57.2209 227.117C58.3803 228.036 59.5787 227.878 60.7131 226.709C61.9855 225.301 62.7371 225.577 64.813 228.171L67.2287 231.302L74.7419 226.994L82.2551 222.686L83.1748 215.939C83.8415 212.209 83.8575 208.591 83.3818 207.839C82.906 207.088 79.5927 205.729 76.0715 204.953C69.8158 203.503 69.439 203.591 62.2326 208.156L54.8203 212.851L56.8592 216.07Z" fill="current"/>
<path fill-rule="evenodd" clip-rule="evenodd" d="M91.5548 193.642C90.1414 203.708 89.9375 203.386 97.6595 206.012L104.698 208.47L111.7 203.583C118.497 198.827 118.635 198.589 117.177 195.604C116.091 193.435 116.303 191.948 117.711 190.755C119.223 189.497 119.332 188.075 118.178 185.799C116.72 182.813 115.592 182.626 112.672 185.077C111.916 185.706 110.654 184.851 109.363 182.813L107.324 179.594L99.8087 184.354C92.9112 188.723 92.2235 189.46 91.5548 193.642Z" fill="current"/>
<path fill-rule="evenodd" clip-rule="evenodd" d="M87.1448 215.83L85.2677 222.431L90.8097 230.497C96.2158 238.349 96.2838 238.456 99.3702 236.952C101.153 236.123 102.488 236.18 102.484 237.085C102.48 237.99 103.742 238.844 105.247 238.943C108.429 239.183 111.045 235.571 109.482 233.103C108.938 232.245 109.286 230.972 110.316 230.32C113.507 228.298 113.144 225.22 108.795 218.353C104.717 211.916 104.478 211.766 97.1617 210.236C93.1958 209.441 89.6396 208.837 89.4337 208.967C89.2278 209.098 88.2563 212.119 87.1448 215.83Z" fill="current"/>
<path fill-rule="evenodd" clip-rule="evenodd" d="M245.825 60.7425C241.959 68.3032 246.226 78.229 254.224 80.3795C260.171 82.025 265.209 80.1866 268.516 75.3861C271.1 71.4943 271.198 64.817 268.683 60.847C263.45 52.5853 250.173 52.576 245.825 60.7425Z" fill="current"/>
<path fill-rule="evenodd" clip-rule="evenodd" d="M239.069 94.9408C236.619 99.4994 236.941 104.107 239.931 108.828C247.407 120.63 264.954 114.627 263.476 100.679C262.783 94.8034 259.173 90.9259 253.021 89.4109C246.868 87.8958 241.691 89.9719 239.069 94.9408Z" fill="current"/>
<path fill-rule="evenodd" clip-rule="evenodd" d="M279.906 68.7726C278.908 70.1568 278.243 73.4344 278.334 76.083C278.51 82.7372 282.56 87.5382 289.228 88.7272C303.895 91.6145 310.385 71.1159 296.864 64.3452C290.685 61.1934 283.97 62.8908 279.906 68.7726Z" fill="current"/>
<path fill-rule="evenodd" clip-rule="evenodd" d="M272.082 104.7C270.143 109.837 271.892 116.698 276.016 120.249C283.755 126.773 294.275 123.568 296.782 113.861C297.965 109.353 297.732 107.847 295.014 103.555C292.295 99.263 291.033 98.4088 286.451 97.5523C280.229 96.3822 274.227 99.4323 272.082 104.7Z" fill="current"/>
<path fill-rule="evenodd" clip-rule="evenodd" d="M122.61 243.58C122.674 244.592 123.389 245.493 124.414 245.745C126.807 246.335 129.183 243.025 127.513 241.528C125.808 240.202 122.585 241.491 122.61 243.58Z" fill="current"/>
<path fill-rule="evenodd" clip-rule="evenodd" d="M129.242 252.911C130.261 254.52 131.116 254.731 132.318 253.669C133.109 252.867 133.389 251.487 132.845 250.629C132.301 249.77 130.934 249.434 129.871 249.806C128.397 250.439 128.222 251.302 129.242 252.911Z" fill="current"/>
<path fill-rule="evenodd" clip-rule="evenodd" d="M134.679 261.495C135.698 263.104 136.553 263.315 137.755 262.252C138.546 261.451 138.826 260.071 138.282 259.212C137.738 258.354 136.371 258.017 135.309 258.39C133.834 259.023 133.659 259.885 134.679 261.495Z" fill="current"/>
<path fill-rule="evenodd" clip-rule="evenodd" d="M141.72 255.531C141.848 257.555 144.068 258.554 145.921 257.38C146.745 256.859 146.751 255.502 146.003 254.322C144.576 252.068 141.629 252.882 141.72 255.531Z" fill="current"/>
<path fill-rule="evenodd" clip-rule="evenodd" d="M337.052 115.265C337.116 116.277 337.831 117.177 338.856 117.43C341.249 118.019 343.625 114.71 341.955 113.212C340.25 111.886 337.027 113.176 337.052 115.265Z" fill="current"/>
<path fill-rule="evenodd" clip-rule="evenodd" d="M342.489 123.848C342.553 124.86 343.268 125.761 344.293 126.013C346.686 126.603 349.062 123.293 347.392 121.795C345.687 120.47 342.464 121.759 342.489 123.848Z" fill="current"/>
<path fill-rule="evenodd" clip-rule="evenodd" d="M142.743 202.262C139.2 206.461 136.808 213.388 136.679 219.333C136.659 223.857 137.471 226.049 141.549 232.486C145.898 239.353 147.091 240.553 152.453 242.869C164.168 247.927 175.921 244.392 182.47 233.779C188.846 223.576 187.292 211.33 178.335 201.517C174.861 197.854 164.509 194.038 158.69 194.416C153.761 194.832 145.599 198.799 142.743 202.262Z" fill="current"/>
<path fill-rule="evenodd" clip-rule="evenodd" d="M234.196 144.183C230.311 148.298 228.963 151.407 227.836 158.736C226.708 166.066 228.463 171.569 233.976 178.451C244.695 191.958 265.68 190.242 274.234 175.052C279.615 165.328 276.465 150.335 267.26 142.635C263.339 139.405 254.727 136.741 249.285 137.031C244.526 137.489 237.394 140.805 234.196 144.183Z" fill="current"/>
</svg>
