<svg width="613" height="554" viewBox="0 0 613 554" fill="current" xmlns="http://www.w3.org/2000/svg">
<path fill-rule="evenodd" clip-rule="evenodd" d="M247.591 41.4645C238.557 38.4011 228.713 37.2742 227.842 38.943C227.359 39.8702 223.771 40.5932 219.808 40.884C203.105 41.3678 164.133 75.2932 120.137 128.068C90.403 163.512 74.184 186.898 53.9782 223.305C39.0596 249.966 34.6934 259.484 30.065 273.348C17.6924 312.427 23.0638 337.881 46.5554 350.143C59.799 357.055 71.7392 357.625 86.9341 352.343C104.419 346.133 116.386 337.042 142.299 310.457C154.613 298.009 168.104 285.231 172.379 282.036L180.483 276.12L184.054 283.883C192.157 301.797 213.635 312.536 233.256 308.384C241.351 306.711 244.357 307.1 252.241 311.215C257.443 313.93 261.313 316.894 260.732 318.006C260.152 319.119 267.175 323.728 278.684 329.736C290.193 335.743 297.991 338.869 298.571 337.756C299.152 336.644 303.796 338.124 308.999 340.839C316.882 344.954 318.921 347.198 322.177 354.796C329.99 373.266 351.081 384.746 370.568 381.233C375.234 380.365 379.574 380.507 380.229 381.557C381.845 384.996 379.43 406.15 374.294 433.67C371.4 448.439 368.896 465.536 368.648 471.777C367.282 499.377 375.46 519.454 392.502 530.236C407.433 539.681 416.646 540.479 432.106 533.92C455.551 523.978 471.834 503.928 494.708 456.645C517.097 410.289 532.105 363.855 545.904 297.444C555.192 252.744 556.351 223.619 549.418 212.687C547.294 209.454 545.836 206.098 546.32 205.171C546.804 204.244 544.898 201.361 542.325 198.603C525.399 182.218 506.895 175.391 489.686 179.15C479.494 181.381 477.47 181.032 467.537 175.848C461.388 172.638 456.512 168.913 456.523 167.739C456.473 166.298 430.688 151.896 384.178 127.62C337.667 103.344 311.108 90.4253 309.897 91.2087C308.94 91.889 303.096 90.0182 296.947 86.8089C287.014 81.6246 285.57 80.1631 281.572 70.5263C275.898 57.1832 263.985 46.9539 247.591 41.4645ZM247.494 65.4801C245.569 68.0147 245.874 69.3533 249.016 72.1731C256.089 78.2242 259.909 79.7461 259.056 75.998C256.378 64.2184 273.148 70.14 277.027 82.3103C278.997 88.5292 280.914 90.2376 290.689 95.3396L301.883 101.182L298.313 106.869C293.617 114.328 288.525 113.322 287.656 104.61C286.432 93.1178 276.405 91.1878 268.076 100.997L264.553 105.056L259.269 94.0404C249.284 73.9648 230.534 62.9982 207.334 63.6301L195.164 63.8846L203.522 57.8653L211.94 52.1138L223.074 57.6888C233.891 63.0991 234.049 63.1814 231.402 58.2604C229.653 55.4604 228.632 52.804 228.826 52.4332C229.116 51.8769 234.04 53.9748 239.715 56.9373C249.175 61.8747 249.928 62.7393 247.494 65.4801ZM483.822 193.077C481.474 196.807 481.585 198.516 484.254 201.089C488.525 205.206 486.7 210.624 480.834 211.101C476.774 211.577 476.179 210.795 475.409 204.967C475.03 201.465 472.673 195.988 470.451 192.941L466.385 187.28L471.369 189.645C474.207 191.126 478.292 191.371 481.03 189.969C487.173 187.04 487.234 187.308 483.822 193.077ZM225.776 80.5699C223.715 80.6741 221.099 82.6118 220.131 84.4661C218.679 87.2475 217.092 87.5986 214.096 86.035C211.416 84.6361 209.101 84.8435 207.273 87.1926C205.542 89.3562 203.13 89.749 200.765 88.5147C196.666 86.3751 191.034 78.7166 192.002 76.8623C193.066 74.8226 203.125 73.2306 211.199 73.9054C220.097 74.5385 231.581 79.8249 225.776 80.5699ZM248.385 95.6741L251.724 101.192L245.435 102.864C240.479 104.288 238.866 103.918 237.372 101.015C236.473 98.8944 234.119 96.486 232.385 95.5808C230.493 94.5933 230.189 93.2547 231.533 91.8328C232.78 90.5962 232.873 87.3419 231.695 84.6033C229.714 79.5583 229.872 79.6406 237.429 84.7646C241.71 87.7073 246.576 92.6063 248.385 95.6741ZM275.7 112.526C273.667 116.42 271.875 118.316 271.316 117.081C270.818 116.113 271.579 112.735 273.224 109.582C274.773 106.616 276.819 104.616 277.607 105.028C278.553 105.522 277.635 108.818 275.7 112.526ZM462.418 208.332C460.773 211.484 458.594 214.122 457.358 214.184C456.025 214.432 456.555 211.878 458.588 207.984C460.523 204.275 462.86 201.72 463.649 202.131C464.594 202.625 463.967 205.365 462.418 208.332ZM527.214 239.084C532.481 245.137 541.11 267.808 538.566 268.84C537.899 268.963 534.635 265.608 531.382 261.079C528.032 256.735 523.858 252.433 522.124 251.528C520.547 250.705 519.526 248.048 520.118 245.762C521.373 240.282 516.286 231.965 509.349 228.344C497.839 222.336 481.862 233.345 479.756 248.526C478.576 256.168 482.854 266.422 488.529 269.385C493.417 271.936 497.263 287.628 494.36 293.191C488.94 303.575 492.349 318.567 501.336 323.257C508.115 326.796 519.651 323.143 526.601 315.21L532.848 307.853L526.604 318.278C510.291 344.92 480.303 356.637 453.274 346.54C432.369 338.932 420.518 318.59 421.557 291.999C422.255 274.903 428.952 256.692 439.267 244.616C451.665 230.088 478.768 218.517 494.747 220.958C504.082 222.292 520.977 231.818 527.214 239.084ZM510.117 244.553C512.051 251.225 507.065 259.24 500.242 260.397C487.989 262.732 484.215 246.134 495.371 238.98C501.27 234.981 508.218 237.427 510.117 244.553ZM222.388 110.89C220.065 115.34 216.772 118.576 213.113 120.205L207.418 122.66L205.921 116.688C204.85 112.59 205.489 108.676 208.102 103.669L211.78 96.6231L218.874 100.326L225.969 104.029L222.388 110.89ZM445.62 222.45C447.186 224.447 446.351 225.663 439.642 231.599C433.284 237.246 429.785 242.027 422.236 256.49C413.429 273.364 412.594 274.58 410.494 272.068C409.051 270.607 404.722 269.291 400.794 269.129C396.867 268.966 389.048 268.188 383.289 267.306C371.772 265.542 353.825 270.331 344.983 277.277C342.077 279.771 339.375 280.72 338.816 279.485C338.318 278.517 334.799 275.265 331.087 272.384C326.053 268.576 324.742 266.476 326 264.066C326.871 262.397 326.918 260.77 325.778 260.647C324.893 260.421 323.585 261.39 323.004 262.502C322.485 263.883 320.643 264.337 319.066 263.514C317.174 262.526 317.027 261.27 318.371 259.848C321.314 256.901 319.068 253.133 315.032 254.33C312.936 254.888 311.893 254.579 311.879 252.684C311.887 248.442 307.426 247.765 305.296 251.844C303.748 254.811 304.149 255.964 306.901 256.457C308.926 256.806 310.624 258.164 310.613 259.338C310.602 260.512 307.85 260.019 304.539 258.291C301.228 256.563 294.997 255.434 290.718 255.56L283.046 256.039L283.725 244.36C284.649 223.371 272.593 204.574 252.548 196.471C246.837 193.962 242.325 191.843 242.422 191.658C244.067 188.505 248.78 186.01 253.568 185.678C258.355 185.345 259.301 185.839 260.093 189.32C260.823 192.532 268.634 197.553 300.787 215.514L340.725 237.776L335.783 241.095C331.798 243.734 330.769 245.32 330.18 250.676C327.483 268.143 345.257 271.757 363.449 257.658L369.832 252.732L383.935 259.149C396.208 264.847 398.863 265.525 404.364 263.442C410.629 261.049 411.173 260.389 422.787 238.138L434.692 215.331L439.264 217.717C441.787 219.034 444.649 221.236 445.62 222.45ZM272.49 150.961C271.382 157.697 261.786 174.159 258.938 173.852C256.974 173.771 257.54 170.764 261.846 160.978C264.954 153.87 268.148 147.751 269.008 147.256C271.369 145.422 273.032 147.233 272.49 150.961ZM162.895 109.567C162.121 111.05 160.06 111.154 158.168 110.167C155.269 108.418 154.155 109.016 151.735 113.651C149.509 117.916 149.523 119.811 152.01 121.581C154.181 123.186 154.572 125.513 153.048 129.201C151.005 134.269 151.223 134.619 161.654 140.771C172.4 147.088 172.4 147.088 182.42 142.88C187.86 140.529 193.408 136.818 194.824 134.49C196.82 131.049 197.996 130.719 202.726 133.187C207.613 135.738 207.953 136.624 205.448 140.271C203.427 142.991 203.322 147.419 204.869 154.833L207.085 165.192L221.784 172.392C229.921 176.403 236.823 180.477 237.163 181.363C238.162 186.367 216.781 199.273 201.826 202.557C190.617 205.2 189.513 204.624 192.9 198.134C194.449 195.167 195.378 190.697 195.181 187.999C194.888 185.487 196.688 179.348 199.204 174.527C203.269 166.739 203.412 164.926 200.518 155.866C198.828 150.264 196.592 145.322 195.646 144.829C193.281 143.594 172.636 152.402 171.184 155.183C170.506 156.481 168.288 156.503 166.239 155.433C164.031 154.281 161.594 153.953 160.383 154.736C159.426 155.417 156.768 151.67 154.629 146.542C152.43 141.147 148.643 136.104 145.963 134.705C142.652 132.977 141.656 131.041 142.477 127.93C144.022 121.895 153.084 104.918 155.12 104.093C158.173 102.855 164.153 107.156 162.895 109.567ZM522.292 298.096C522.998 300.588 522.517 304.584 521.259 306.995C518.549 312.187 509.959 315.961 505.702 313.739C501.603 311.6 499.533 302.497 502.243 297.305C507.082 288.034 519.531 288.397 522.292 298.096ZM183.784 125.661C183.984 131.427 183.694 131.984 179.271 133.922C176.121 135.346 172.448 135.08 168.349 132.94L162.358 129.813L166.713 121.469L171.068 113.125L177.375 116.417C182.262 118.968 183.67 120.882 183.784 125.661ZM232.931 156.031L228.576 164.376L221.796 160.837C216.909 158.286 214.652 155.692 213.957 152.026C213.055 146.837 213.152 146.651 219.101 144.094C223.523 142.155 226.881 142.256 231.295 144.56L237.286 147.687L232.931 156.031ZM131.022 139.883C129.861 142.108 128.019 142.563 125.496 141.246C122.185 139.518 122.099 138.529 125.053 134.408C126.978 131.874 129.798 128.391 131.336 126.598C134.024 123.754 134.243 124.104 133.364 130.016C132.919 133.559 131.735 138.132 131.022 139.883ZM189.457 173.214L185.478 181.991L178.383 178.288L171.131 174.503L174.712 167.642C177.034 163.191 180.328 159.956 183.987 158.327C188.918 156.182 189.9 156.222 191.48 160.114C192.877 163.203 192.432 166.745 189.457 173.214ZM361.028 248.844C359.382 251.997 343.521 257.403 340.622 255.654C338.196 254.152 338.135 253.884 340.73 254.294C344.525 255.095 346.328 252.025 343.852 249.081C342.601 247.249 343.024 246.054 345.641 244.116C348.099 242.097 350.79 242.322 355.205 244.626C358.674 246.436 361.318 248.288 361.028 248.844ZM146.977 155.053C149.434 163.414 150.344 164.361 161.073 165.714C164.649 166.165 164.832 166.968 162.402 172.778C160.007 178.134 160.214 179.658 163.805 182.004C166.449 183.856 167.191 185.895 166.029 188.12C165.061 189.974 165.38 193.208 166.849 195.39C171.657 203.09 156.346 190.144 150.471 181.415C144.935 173.571 139.925 157.035 140.449 148.343C140.636 141.834 144.373 145.436 146.977 155.053ZM263.866 216.299C266.753 219.222 270.239 225.996 271.869 231.329C280.211 257.626 265.586 286.8 239.353 296.702C202.53 310.75 174.574 270.913 194.511 232.715C209.9 203.232 244.195 195.179 263.866 216.299ZM402.608 288.715C414.658 301.374 416.245 324.854 406.567 343.396C387.113 380.667 339.101 381.561 328.797 344.803C323.894 326.907 327.079 311.581 339.426 295.612C356.906 272.883 384.977 269.838 402.608 288.715ZM519.567 359.435C518.262 363.472 512.335 363.682 511.421 359.666C510.508 355.65 515.522 351.425 518.288 353.812C519.671 355.006 520.219 357.416 519.567 359.435ZM124.881 156.261C123.347 161.123 122.934 161.144 116.47 157.77C111.11 154.972 110.139 153.757 111.931 151.861C113.336 150.707 116.923 149.984 120.245 150.538C123.409 151.01 126.258 151.317 126.258 151.317C126.512 151.214 125.921 153.501 124.881 156.261ZM184.533 194.947C183.566 196.801 175.327 200.287 173.592 199.382C172.804 198.97 173.639 197.755 175.517 196.847C177.237 195.857 178.775 194.065 178.725 192.623C178.833 191.263 180.166 191.016 181.9 191.921C183.792 192.908 184.921 194.205 184.533 194.947ZM496.534 369.355C494.051 370.655 493.008 370.346 492.302 367.854C491.439 365.28 491.862 364.085 494.249 362.972C496.732 361.673 497.775 361.981 498.481 364.473C499.344 367.047 498.921 368.242 496.534 369.355ZM511.824 374.269C510.519 378.306 504.592 378.516 503.679 374.5C502.766 370.484 507.78 366.259 510.546 368.647C511.929 369.84 512.477 372.25 511.824 374.269ZM129.669 179.759C133.876 180.539 133.979 186.492 129.628 187.524C126.356 188.412 112.148 186.422 112.001 185.166C111.879 184.631 114.567 181.787 117.922 178.819C122.137 175.356 124.427 174.428 125.011 176.384C125.473 177.805 127.486 179.328 129.669 179.759ZM183.675 232.721C181.402 238.613 179.071 247.307 178.773 252.106C178.317 256.823 177.303 260.304 176.672 259.975C175.884 259.563 175.325 258.328 175.275 256.886C175.211 253.55 169.757 254.006 167.821 257.715C165.982 261.238 156.855 261.429 150.549 258.137C145.503 255.504 145.744 253.506 151.342 251.237C157.957 248.555 159.287 245.238 157.483 234.859L156.14 225.9L161.232 226.906C163.984 227.399 167.306 227.953 168.482 227.623C170.639 227.333 171.682 227.641 174.968 228.649C175.914 229.142 177.512 227.617 178.577 225.577C180.706 221.498 176.872 218.081 172.292 219.938C170.511 220.66 169.382 219.363 168.688 215.697C167.664 209.972 167.664 209.972 180.152 212.951C188.942 214.943 189.454 217.806 183.675 232.721ZM323.872 305.425C320.668 312.718 317.778 320.176 317.695 322.256C317.286 325.346 316.269 325.758 313.431 324.277C310.435 322.714 310.227 321.19 311.945 317.131C313.529 313.711 313.573 309.015 312.065 304.217C309.013 295.074 311.579 291.695 321.022 291.668C324.634 291.666 328.053 292.035 328.622 292.096C329.253 292.425 327.138 298.4 323.872 305.425ZM504.662 387.99C503.805 391.554 497.756 391.228 496.904 387.48C496.539 385.874 497.252 384.123 498.56 383.154C501.334 381.299 505.265 384.53 504.662 387.99ZM99.8158 217.737C101.6 220.084 108.745 225.228 115.585 229.035C122.644 233.191 130.287 239.303 133.733 243.462L139.401 250.667L132.021 264.039C127.737 271.477 124.228 277.431 123.913 277.267C123.755 277.184 122.383 274.817 121.205 272.078C117.755 264.851 109.875 263.805 98.7651 269.332C89.5333 273.951 77.423 284.854 73.7452 291.9C72.6806 293.94 72.1389 297.668 72.5292 299.995C73.1879 304.114 72.679 304.32 65.2112 303.254C58.0945 301.899 56.5179 301.076 52.8994 294.94C48.7472 288.29 42.6125 263.145 44.2578 259.993C45.8063 257.026 49.7447 256.015 61.7926 255.225C71.6832 254.724 75.8152 253.342 82.6462 247.941L91.0397 241.469L90.4388 234.549C89.6661 225.652 82.9943 220.754 73.1896 222.243C63.797 223.711 63.4208 223.278 66.6146 217.159C68.9015 213.162 71.0339 212.152 80.197 211.508C92.2449 210.718 95.0579 211.478 99.8158 217.737ZM143.273 290.91C141.735 292.703 138.079 297.401 135.441 301.687C132.258 306.632 129 309.415 125.825 310.117C118.142 311.769 116.612 309.319 123.167 306.37C130.23 303.214 138.051 293.612 138.263 287.824C138.612 284.467 139.217 284.075 142.37 285.721C145.681 287.449 145.767 288.437 143.273 290.91Z" fill="current"/>
<path fill-rule="evenodd" clip-rule="evenodd" d="M450.834 247.822C443.319 248.383 437.13 252.938 433.162 260.541C423.193 279.64 437.309 298.333 455.01 289.404C471.087 281.279 474.856 257.529 461.14 250.37C457.829 248.642 453.149 247.615 450.834 247.822ZM459.747 263.8C461.023 266.353 460.711 269.257 458.388 273.707C451.71 286.502 437.172 282.453 438.697 268.385C440.104 256.85 453.725 253.814 459.747 263.8Z" fill="current"/>
<path fill-rule="evenodd" clip-rule="evenodd" d="M456.853 302.399C436.669 312.627 437.453 344.181 458.011 344.766C467.199 344.843 473.607 340.637 478.64 330.995C484.737 319.313 482.789 310.746 472.334 303.873C464.68 298.934 463.698 298.894 456.853 302.399ZM472.253 319.403C472.327 321.565 471.725 325.026 470.563 327.251C465.24 337.45 453.179 336.345 450.84 325.451C449.805 320.899 450.264 319.251 453.751 315.645C461.174 307.958 471.104 310.073 472.253 319.403Z" fill="current"/>
<path fill-rule="evenodd" clip-rule="evenodd" d="M305.178 230.547C301.956 232.877 303.743 238.292 307.305 236.848C310.359 235.611 311.13 231.059 308.765 229.824C307.977 229.413 306.389 229.764 305.178 230.547Z" fill="current"/>
<path fill-rule="evenodd" clip-rule="evenodd" d="M313.62 235.897C312.845 237.381 313.272 239.255 314.533 239.913C315.794 240.571 317.575 239.849 318.35 238.366C319.124 236.883 318.698 235.008 317.436 234.35C316.175 233.692 314.394 234.414 313.62 235.897Z" fill="current"/>
<path fill-rule="evenodd" clip-rule="evenodd" d="M323.477 238.919C320.17 240.26 320.051 242.793 323.362 244.521C325.096 245.426 326.841 245.158 327.203 243.695C327.77 240.688 325.767 237.991 323.477 238.919Z" fill="current"/>
<path fill-rule="evenodd" clip-rule="evenodd" d="M305.115 240.66C303.373 243.998 304.831 247.354 307.813 247.023C310.637 246.609 311.358 240.615 308.678 239.216C307.416 238.558 305.89 239.177 305.115 240.66Z" fill="current"/>
<path fill-rule="evenodd" clip-rule="evenodd" d="M314.428 244.341C313.471 245.022 313.231 247.02 313.754 248.708C315.018 252.435 318.993 250.971 318.904 246.913C318.804 244.03 316.693 242.692 314.428 244.341Z" fill="current"/>
<path fill-rule="evenodd" clip-rule="evenodd" d="M323.634 249.382C320.254 251.629 321.325 255.727 325.106 254.633C326.79 254.097 328.292 252.757 328.303 251.583C328.36 248.782 326.056 247.815 323.634 249.382Z" fill="current"/>
<path fill-rule="evenodd" clip-rule="evenodd" d="M235.532 210.24C224.853 210.329 211.829 217.216 203.912 227.004C187.181 247.528 190.849 278.936 210.933 289.654C231.744 300.517 259.415 285.938 266.88 260.106C272.412 241.051 265.75 221.529 250.929 213.794C246.988 211.736 240.126 210.278 235.532 210.24Z" fill="current"/>
<path fill-rule="evenodd" clip-rule="evenodd" d="M371.887 283.77C347.017 286.833 329.15 310.303 332.339 335.326C336.699 367.33 372.672 376.433 395.217 350.921C420.291 322.483 405.448 279.815 371.887 283.77Z" fill="current"/>
<path fill-rule="evenodd" clip-rule="evenodd" d="M165.979 234.339C161.872 236.442 161.803 240.417 165.903 242.557C167.795 243.544 169.576 242.822 170.737 240.597C173.06 236.147 170.086 232.235 165.979 234.339Z" fill="current"/>
<path fill-rule="evenodd" clip-rule="evenodd" d="M158.237 249.173C154.129 251.276 154.061 255.251 158.16 257.391C160.052 258.378 161.833 257.656 162.994 255.431C165.317 250.981 162.344 247.069 158.237 249.173Z" fill="current"/>
</svg>
