<svg width="920" height="813" viewBox="0 0 920 813" fill="none" xmlns="http://www.w3.org/2000/svg">
<path d="M764.2 193.8C769.3 333.2 674.3 446.6 542.8 471.4C362.3 505.4 208.8 372.4 212.5 203.1C213.1 176 214.1 149.2 221.3 122.8C225.8 106.2 233.4 99.9 250.4 108.7C267.6 117.6 285.6 125.1 303.4 133C317.8 139.4 325.1 148.2 318.2 164.8C312.1 179.5 305.1 190.9 286.4 183.2C267.5 175.5 260.2 185.9 261.3 202.2C264.2 241.2 271.8 279 292.8 313.2C302.1 328.3 312.6 331.6 328.7 324.5C349.5 315.2 370.6 305.7 392.4 299.7C422.8 291.4 436.1 271.1 442 242.5C445.9 223.5 451.4 204.8 456.2 185.9C460.3 169.8 470.1 162.3 487.2 162.1C504.2 161.9 514.5 168.5 518.8 184.8C525.3 209.3 532 233.8 538.5 258.3C543.2 275.9 553.5 287.6 571.1 294.1C595.7 303.2 620.1 312.9 643.7 324C661.8 332.5 674.3 328.8 684.3 312.3C706.1 276.4 714 237.3 711.4 195.7C710.6 182 703.9 177.6 691.3 181.7C670.8 188.3 662 176.9 655.5 159.9C647.8 139.7 664 137.5 675.6 131.9C690 124.9 704.6 118 719.5 112C742.9 102.5 750.7 106.7 758.3 131.3C764.9 152.5 764.9 174.5 764.2 193.8ZM491.3 426C501 420 529.4 439.2 522.6 405.7C515.3 369.3 505.3 333.4 496.2 297.3C495 292.6 494.2 286.1 488 286C481.6 285.9 481.1 292.2 479.9 297C471.4 330.6 463.9 364.4 454.3 397.7C448.1 419.3 454.1 428.2 476.5 426C480.7 425.6 485 426 491.3 426ZM412 365.5C416.6 346.6 411.6 342.8 400.3 347.8C386.4 354.1 372.9 361.1 359.3 368C349.2 373.1 347.8 378.3 357.5 386.6C390.9 415.4 400.8 412.8 410.7 371.5C411.7 367.3 412.5 363.2 412 365.5ZM626.9 378.6C622.8 367.2 612.8 365.2 604.7 361.9C591.9 356.6 578.4 340.5 566 350.3C554.3 359.5 568.5 374.9 570.7 387.6C572.1 395.5 572 410.8 585.2 405.6C600.4 399.6 615.4 390.9 626.9 378.6Z" fill="black"/>
<path d="M748.8 440.5C750.2 453.9 744 464.9 729.9 471.2C656.5 503.9 583.3 536.8 509.9 569.4C494.4 576.3 478.7 575.3 463.2 568.3C392.3 536.4 321.3 504.7 250.4 472.7C244.3 469.9 238.2 466.6 233.1 462.3C218.2 449.6 224 433.5 230.1 420.2C237.3 404.3 249.2 416.4 258 420.3C324.5 449.7 391.1 478.8 456.8 509.8C483.2 522.2 505.9 516.1 529.4 504.7C591.7 474.4 654.7 445.4 719.1 419.6C742.1 410.4 748.5 415 748.8 440.5Z" fill="black"/>
<path d="M380.6 579.1C372.7 636.4 369.3 692 358.4 746.7C356.1 758.2 351.2 761.5 341.2 757C305 740.8 268.6 724.9 232.8 707.8C214.1 698.9 215.2 682.3 222.2 666.4C229.9 649 243.5 657.4 254.8 661.6C269 666.9 282.5 674 296.6 679.8C301.9 682 308.7 684.6 312.4 677.7C316.6 669.8 310.8 664.6 304.7 661.5C288.1 653.2 271.2 645.4 254.3 637.7C236.8 629.7 230 618.3 238.7 599.2C247.4 579.9 260.4 584.9 274.4 591.1C283.7 595.2 293 599.2 302.5 602.7C308.2 604.8 315.7 612 319.9 603.1C323.3 595.9 315.2 590.8 309.8 587.6C297.5 580.3 284.6 573.8 271.7 567.5C253.4 558.5 251.1 544.8 258.6 527.4C266.6 509 279.8 514.4 292.5 519.9C315.7 530 338.7 540.7 361.7 551.4C374.3 557 381.1 566.8 380.6 579.1Z" fill="black"/>
<path d="M653.9 606.7C673.6 605.4 687.9 595.7 703.4 590.3C715.8 586 728.7 579.4 735.3 596.7C740.9 611.5 742.4 627.2 724.6 636.2C712.5 642.3 699.6 646.6 687.7 653C680.4 656.9 674 662.8 667.8 668.4C664.7 671.2 662.2 675.7 664.8 679.7C667.7 684.1 672.4 682.1 676.3 680.5C692.7 673.7 709 666.7 725.5 660.1C737.6 655.2 748.7 654.4 754.7 669.5C760.1 683 763.2 697.8 748 705.3C711.6 723.2 674.8 740.4 637 755.1C618 762.5 614.4 743.7 612.7 731.1C607.7 694.3 604.5 657.3 600.7 620.3C600.4 616.9 601.1 613.4 600.3 610.2C586.7 557.1 602.5 557.7 643.5 537.5C657.1 530.8 671.3 525.1 685.2 518.9C696.3 514 707.9 507.9 715.6 523.2C722.4 536.7 726.1 550.3 711.6 562.1C701.6 570.3 689.9 575 678.3 580.2C667.5 584.9 658 591.3 653.9 606.7Z" fill="black"/>
<path d="M488.2 773.5C455.2 774.9 429.5 760.2 404.4 744.5C388.6 734.7 389.5 719.1 393 703.8C395.5 693.1 403.7 691.8 412.9 695.2C423.2 699 434.3 701.6 443.4 707.4C473.8 726.9 503.2 726.3 533.1 706.9C538 703.7 543.7 701.4 549.3 699.9C560.5 696.8 574 683.9 582.3 701C590 716.9 589.5 734.6 571.5 745.5C545.4 761.3 518.8 776.2 488.2 773.5Z" fill="black"/>
</svg>
